<svg xmlns="http://www.w3.org/2000/svg" xmlns:xlink="http://www.w3.org/1999/xlink">

  <symbol id="heart" viewBox="0 0 20 17.3">
    <title>heart</title>
    <path d="M18.4 1.6c-2.1-2.1-5.6-2.1-7.7 0-.4.4-1 .4-1.4 0-2.1-2.1-5.6-2.1-7.7 0-2.1 2.1-2.1 5.6 0 7.7L9.3 17c.4.4 1 .4 1.4 0l7.7-7.7c2.1-2.1 2.1-5.6 0-7.7z" fill="currentColor"/>
  </symbol>

  <symbol id="arrow-right" viewBox="0 0 11.2 20">
  <title>next</title>
  <path d="M10.9 9.1L2.1.4C1.6-.1.8-.1.4.4c-.5.5-.5 1.3 0 1.7L8.3 10 .4 17.9c-.5.5-.5 1.3 0 1.7.2.3.5.4.8.4s.6-.1.9-.4l8.8-8.8c.2-.2.4-.6.4-.9-.1-.2-.2-.5-.4-.8z" fill="currentColor"/>
  </symbol>

  <symbol id="arrow-left" viewBox="0 0 11.2 20">
  <title>previous</title>
  <path d="M.4 9.1L9.2.3c.5-.5 1.3-.5 1.7 0 .5.5.5 1.3 0 1.7L3 10l7.9 7.9c.5.5.5 1.3 0 1.7-.3.3-.6.4-.9.4s-.6-.1-.9-.4L.3 10.8c-.2-.2-.3-.5-.3-.8 0-.3.1-.6.4-.9z" fill="currentColor"/>
  </symbol>

  <symbol id="magnifying-glass" viewBox="0 0 60.6 60">
  <title>search</title>
  <path d="M35.9 0C22.2 0 11.1 11.1 11.1 24.8c0 6 2.1 11.4 5.6 15.7L.6 56.6c-.8.8-.8 2 0 2.8.4.4.9.6 1.4.6.5 0 1-.2 1.4-.6l16.1-16.1c4.4 3.9 10.1 6.2 16.4 6.2 13.7 0 24.8-11.1 24.8-24.8C60.6 11.1 49.5 0 35.9 0zm0 45.6C24.4 45.6 15 36.3 15 24.8S24.3 4 35.8 4s20.8 9.3 20.8 20.8c.1 11.5-9.3 20.8-20.7 20.8z" fill="currentColor"/>
  </symbol>

  <symbol id="heart-outline" viewBox="0 0 57.3 52">
  <title>favorites</title>
  <path d="M41.2 0c-4.9 0-9.5 2.4-12.5 6.5C25.6 2.4 21.1 0 16.1 0 7.2 0 0 7.9 0 17.6c0 4.7 1.7 9.1 4.7 12.4 2.6 2.9 21.9 20.8 22.7 21.6.4.3.9.5 1.3.5.5 0 .9-.2 1.3-.5 2.1-2 21.1-19.3 23.7-22.8 2.3-3.1 3.6-7.1 3.6-11.1C57.3 7.9 50.1 0 41.2 0zm9.4 26.4c-1.9 2.5-15.4 15.1-21.9 21.1-4.5-4.2-19-17.8-21.1-20.1-2.4-2.6-3.7-6.1-3.7-9.7C3.9 10 9.4 3.9 16.1 3.9c4.5 0 8.6 2.8 10.8 7.2.3.7 1 1.1 1.8 1.1.7 0 1.4-.4 1.8-1.1 2.1-4.4 6.3-7.2 10.8-7.2 6.7 0 12.2 6.1 12.2 13.7-.1 3.2-1.1 6.3-2.9 8.8z" fill="currentColor"/>
  </symbol>

</svg>
