<svg xmlns="http://www.w3.org/2000/svg" xmlns:xlink="http://www.w3.org/1999/xlink">

  <symbol id="heart" viewBox="0 0 20 17.3">
    <title>heart</title>
    <path d="M18.4 1.6c-2.1-2.1-5.6-2.1-7.7 0-.4.4-1 .4-1.4 0-2.1-2.1-5.6-2.1-7.7 0-2.1 2.1-2.1 5.6 0 7.7L9.3 17c.4.4 1 .4 1.4 0l7.7-7.7c2.1-2.1 2.1-5.6 0-7.7z" fill="currentColor"/>
  </symbol>

  <symbol id="arrow-right" viewBox="0 0 11.2 20">
  <title>next</title>
  <path d="M10.9 9.1L2.1.4C1.6-.1.8-.1.4.4c-.5.5-.5 1.3 0 1.7L8.3 10 .4 17.9c-.5.5-.5 1.3 0 1.7.2.3.5.4.8.4s.6-.1.9-.4l8.8-8.8c.2-.2.4-.6.4-.9-.1-.2-.2-.5-.4-.8z" fill="currentColor"/>
  </symbol>

  <symbol id="arrow-left" viewBox="0 0 11.2 20">
  <title>previous</title>
  <path d="M.4 9.1L9.2.3c.5-.5 1.3-.5 1.7 0 .5.5.5 1.3 0 1.7L3 10l7.9 7.9c.5.5.5 1.3 0 1.7-.3.3-.6.4-.9.4s-.6-.1-.9-.4L.3 10.8c-.2-.2-.3-.5-.3-.8 0-.3.1-.6.4-.9z" fill="currentColor"/>
  </symbol>

</svg>
