<svg xmlns="http://www.w3.org/2000/svg" xmlns:xlink="http://www.w3.org/1999/xlink">

  <symbol id="heart" viewBox="0 0 20 17.3">
    <title>heart</title>
    <path d="M18.4 1.6c-2.1-2.1-5.6-2.1-7.7 0-.4.4-1 .4-1.4 0-2.1-2.1-5.6-2.1-7.7 0-2.1 2.1-2.1 5.6 0 7.7L9.3 17c.4.4 1 .4 1.4 0l7.7-7.7c2.1-2.1 2.1-5.6 0-7.7z" fill="currentColor"/>
  </symbol>

  <symbol id="heart-outline" viewBox="0 0 57.3 52">
    <title>heart</title>
    <path d="M41.2 0c-4.9 0-9.5 2.4-12.5 6.5C25.6 2.4 21.1 0 16.1 0 7.2 0 0 7.9 0 17.6c0 4.7 1.7 9.1 4.7 12.4 2.6 2.9 21.9 20.8 22.7 21.6.4.3.9.5 1.3.5.5 0 .9-.2 1.3-.5 2.1-2 21.1-19.3 23.7-22.8 2.3-3.1 3.6-7.1 3.6-11.1C57.3 7.9 50.1 0 41.2 0zm9.4 26.4c-1.9 2.5-15.4 15.1-21.9 21.1-4.5-4.2-19-17.8-21.1-20.1-2.4-2.6-3.7-6.1-3.7-9.7C3.9 10 9.4 3.9 16.1 3.9c4.5 0 8.6 2.8 10.8 7.2.3.7 1 1.1 1.8 1.1.7 0 1.4-.4 1.8-1.1 2.1-4.4 6.3-7.2 10.8-7.2 6.7 0 12.2 6.1 12.2 13.7-.1 3.2-1.1 6.3-2.9 8.8z" fill="currentColor"/>
  </symbol>

  <symbol id="arrow-right" viewBox="0 0 11.2 20">
  <title>next</title>
  <path d="M10.9 9.1L2.1.4C1.6-.1.8-.1.4.4c-.5.5-.5 1.3 0 1.7L8.3 10 .4 17.9c-.5.5-.5 1.3 0 1.7.2.3.5.4.8.4s.6-.1.9-.4l8.8-8.8c.2-.2.4-.6.4-.9-.1-.2-.2-.5-.4-.8z" fill="currentColor"/>
  </symbol>

  <symbol id="arrow-left" viewBox="0 0 11.2 20">
  <title>previous</title>
  <path d="M.4 9.1L9.2.3c.5-.5 1.3-.5 1.7 0 .5.5.5 1.3 0 1.7L3 10l7.9 7.9c.5.5.5 1.3 0 1.7-.3.3-.6.4-.9.4s-.6-.1-.9-.4L.3 10.8c-.2-.2-.3-.5-.3-.8 0-.3.1-.6.4-.9z" fill="currentColor"/>
  </symbol>

  <symbol id="search" viewBox="0 0 60.6 60">
  <title>search</title>
  <path d="M-.1 24.7c0 13.7 11.1 24.8 24.8 24.8 6.3 0 12-2.3 16.4-6.2l16.1 16.1c.4.4.9.6 1.4.6s1-.2 1.4-.6c.8-.8.8-2 0-2.8L44 40.5c3.5-4.3 5.6-9.7 5.6-15.7C49.5 11.1 38.5 0 24.7 0 11.1 0 .1 11.1-.1 24.7zm4.2.1C4.1 13.3 13.4 4 24.9 4s20.8 9.3 20.8 20.8-9.4 20.8-20.9 20.8C13.4 45.6 4 36.3 4.1 24.8z" fill="currentColor"/>
  </symbol>

  <symbol id="heart-outline" viewBox="0 0 57.3 52">
  <title>favorites</title>
  <path d="M41.2 0c-4.9 0-9.5 2.4-12.5 6.5C25.6 2.4 21.1 0 16.1 0 7.2 0 0 7.9 0 17.6c0 4.7 1.7 9.1 4.7 12.4 2.6 2.9 21.9 20.8 22.7 21.6.4.3.9.5 1.3.5.5 0 .9-.2 1.3-.5 2.1-2 21.1-19.3 23.7-22.8 2.3-3.1 3.6-7.1 3.6-11.1C57.3 7.9 50.1 0 41.2 0zm9.4 26.4c-1.9 2.5-15.4 15.1-21.9 21.1-4.5-4.2-19-17.8-21.1-20.1-2.4-2.6-3.7-6.1-3.7-9.7C3.9 10 9.4 3.9 16.1 3.9c4.5 0 8.6 2.8 10.8 7.2.3.7 1 1.1 1.8 1.1.7 0 1.4-.4 1.8-1.1 2.1-4.4 6.3-7.2 10.8-7.2 6.7 0 12.2 6.1 12.2 13.7-.1 3.2-1.1 6.3-2.9 8.8z" fill="currentColor"/>
  </symbol>

  <symbol id="close" viewBox="0 0 60.7 60.7">
  <title>close</title>
  <path d="M60.7 3l-3-3-27.3 27.4L3 0 0 3l27.4 27.4L0 57.7l3 3 27.4-27.4 27.4 27.4 2.9-3-27.4-27.3z"/>
  </symbol>

<symbol id="twitter" viewBox="0 0 35 35">
  <title>twitter</title>
  <path d="M25.6 11.7c.9-.1 1.7-.3 2.5-.7-.6.9-1.3 1.6-2.2 2.2v.5c0 .9-.1 1.7-.3 2.6-1.1 4.9-5.3 9.6-12.1 9.6-2.5 0-4.8-.7-6.7-1.9.4 0 .7.1 1 .1 2 0 3.9-.7 5.4-1.8-1.9 0-3.5-1.3-4.1-3 .3.1.5.1.8.1.4 0 .8-.1 1.2-.2-1.5-.3-2.7-1.3-3.2-2.7-.2-.5-.3-1-.3-1.5.6.3 1.3.5 2 .5-1.2-.8-1.9-2.1-1.9-3.6 0-.8.2-1.5.6-2.2 2.1 2.6 5.4 4.3 9 4.5-.1-.3-.1-.6-.1-1 0-2.4 2-4.3 4.4-4.3 1.3 0 2.4.5 3.2 1.4 1-.2 1.9-.6 2.8-1-.4 1-1.1 1.9-2 2.4M35 31.4V3.6c0-2-1.6-3.6-3.6-3.6H3.6C1.6 0 0 1.6 0 3.6v27.9c0 2 1.6 3.6 3.6 3.6h27.9c1.9-.1 3.5-1.7 3.5-3.7" fill="currentColor"/>
  </symbol>

<symbol id="instagram" viewBox="0 0 35 35">
  <title>instagram</title>
  <path d="M21.1 17.5c0-2-1.6-3.6-3.6-3.6s-3.6 1.6-3.6 3.6 1.6 3.6 3.6 3.6 3.6-1.6 3.6-3.6m3.4-5.7c0 .7-.6 1.3-1.3 1.3-.7 0-1.3-.6-1.3-1.3 0-.7.6-1.3 1.3-1.3.7 0 1.3.6 1.3 1.3m-1.4 5.7c0 3.1-2.5 5.6-5.6 5.6s-5.6-2.5-5.6-5.6c0-3.1 2.5-5.6 5.6-5.6s5.6 2.5 5.6 5.6m3.2 4.6v-9.3c0-2.3-1.9-4.1-4.1-4.1h-9.3c-2.3 0-4.1 1.9-4.1 4.1v9.3c0 2.3 1.9 4.1 4.1 4.1h9.3c2.2.1 4.1-1.8 4.1-4.1m1.9 0c0 3.4-2.7 6.1-6.1 6.1h-9.3c-3.4 0-6.1-2.7-6.1-6.1v-9.3c0-3.4 2.7-6.1 6.1-6.1h9.3c3.4 0 6.1 2.7 6.1 6.1v9.3zm6.8 9.3V3.5c0-2-1.6-3.6-3.6-3.6H3.6C1.6 0 0 1.6 0 3.5v27.9c0 2 1.6 3.6 3.6 3.6h27.9c1.9 0 3.5-1.6 3.5-3.6" fill="currentColor"/>
  </symbol>

<symbol id="facebook" viewBox="0 0 35 35">
  <title>facebook</title>
  <path d="M19.2 13.8h3.4l-.4 3.7h-3v10.9h-4.5V17.5h-2.2v-3.7h2.2v-2.2c0-3.1 1.3-4.9 4.9-4.9h3v3.7h-1.9c-1.4 0-1.5.5-1.5 1.5v1.9zM35 31.4V3.5c0-2-1.6-3.6-3.6-3.6H3.6C1.6 0 0 1.6 0 3.5v27.9c0 2 1.6 3.6 3.6 3.6h27.9c1.9 0 3.5-1.6 3.5-3.6" fill="currentColor"/>
  </symbol>


</svg>
