<svg xmlns="http://www.w3.org/2000/svg" viewBox="0 0 35 35"><metadata><?xpacket begin="﻿" id="W5M0MpCehiHzreSzNTczkc9d"?>
<x:xmpmeta xmlns:x="adobe:ns:meta/" x:xmptk="Adobe XMP Core 5.6-c137 79.159768, 2016/08/11-13:24:42        ">
   <rdf:RDF xmlns:rdf="http://www.w3.org/1999/02/22-rdf-syntax-ns#">
      <rdf:Description rdf:about=""/>
   </rdf:RDF>
</x:xmpmeta>
                                                                                                    
                                                                                                    
                                                                                                    
                                                                                                    
                                                                                                    
                                                                                                    
                                                                                                    
                                                                                                    
                                                                                                    
                                                                                                    
                                                                                                    
                                                                                                    
                                                                                                    
                                                                                                    
                                                                                                    
                                                                                                    
                                                                                                    
                                                                                                    
                                                                                                    
                                                                                                    
                           
<?xpacket end="w"?></metadata>
<path d="M21.1 17.5c0-2-1.6-3.6-3.6-3.6s-3.6 1.6-3.6 3.6 1.6 3.6 3.6 3.6 3.6-1.6 3.6-3.6m3.4-5.7c0 .7-.6 1.3-1.3 1.3-.7 0-1.3-.6-1.3-1.3 0-.7.6-1.3 1.3-1.3.7 0 1.3.6 1.3 1.3m-1.4 5.7c0 3.1-2.5 5.6-5.6 5.6s-5.6-2.5-5.6-5.6c0-3.1 2.5-5.6 5.6-5.6s5.6 2.5 5.6 5.6m3.2 4.6v-9.3c0-2.3-1.9-4.1-4.1-4.1h-9.3c-2.3 0-4.1 1.9-4.1 4.1v9.3c0 2.3 1.9 4.1 4.1 4.1h9.3c2.2.1 4.1-1.8 4.1-4.1m1.9 0c0 3.4-2.7 6.1-6.1 6.1h-9.3c-3.4 0-6.1-2.7-6.1-6.1v-9.3c0-3.4 2.7-6.1 6.1-6.1h9.3c3.4 0 6.1 2.7 6.1 6.1v9.3zm6.8 9.3V3.5c0-2-1.6-3.6-3.6-3.6H3.6C1.6 0 0 1.6 0 3.5v27.9c0 2 1.6 3.6 3.6 3.6h27.9c1.9 0 3.5-1.6 3.5-3.6" fill="#b9bdc7"/></svg>