<svg xmlns="http://www.w3.org/2000/svg" viewBox="0 0 60.6 60"><metadata><?xpacket begin="﻿" id="W5M0MpCehiHzreSzNTczkc9d"?>
<x:xmpmeta xmlns:x="adobe:ns:meta/" x:xmptk="Adobe XMP Core 5.6-c137 79.159768, 2016/08/11-13:24:42        ">
   <rdf:RDF xmlns:rdf="http://www.w3.org/1999/02/22-rdf-syntax-ns#">
      <rdf:Description rdf:about=""/>
   </rdf:RDF>
</x:xmpmeta>
                                                                                                    
                                                                                                    
                                                                                                    
                                                                                                    
                                                                                                    
                                                                                                    
                                                                                                    
                                                                                                    
                                                                                                    
                                                                                                    
                                                                                                    
                                                                                                    
                                                                                                    
                                                                                                    
                                                                                                    
                                                                                                    
                                                                                                    
                                                                                                    
                                                                                                    
                                                                                                    
                           
<?xpacket end="w"?></metadata>
<path d="M-.1 24.7c0 13.7 11.1 24.8 24.8 24.8 6.3 0 12-2.3 16.4-6.2l16.1 16.1c.4.4.9.6 1.4.6s1-.2 1.4-.6c.8-.8.8-2 0-2.8L44 40.5c3.5-4.3 5.6-9.7 5.6-15.7C49.5 11.1 38.5 0 24.7 0 11.1 0 .1 11.1-.1 24.7zm4.2.1C4.1 13.3 13.4 4 24.9 4s20.8 9.3 20.8 20.8-9.4 20.8-20.9 20.8C13.4 45.6 4 36.3 4.1 24.8z" fill="#231f20"/></svg>