<svg xmlns="http://www.w3.org/2000/svg" viewBox="0 0 342.9 407.5"><path d="M222.8 116.5c4.5 0 8.1-3.6 8.1-8.1s-3.6-8.1-8.1-8.1H111.2c-4.5 0-8.1 3.6-8.1 8.1s3.6 8.1 8.1 8.1h111.6zm112-16.2h-55.4c-4.5 0-8.1 3.6-8.1 8.1s3.6 8.1 8.1 8.1h47.2v274.7H16.3V116.5h44.5c4.5 0 8.1-3.6 8.1-8.1s-3.6-8.1-8.1-8.1H8.1c-4.5 0-8.1 3.6-8.1 8.1v290.9c0 4.5 3.6 8.1 8.1 8.1h326.7c4.5 0 8.1-3.6 8.1-8.1V108.4c0-4.5-3.6-8.1-8.1-8.1zm-84.5 34.5c4.5 0 8.1-3.6 8.1-8.1V67.4c0-37.2-40.1-67.4-89.6-67.4-49.3 0-89.4 30.2-89.4 67.4v59.3c0 4.5 3.6 8.1 8.1 8.1s8.1-3.6 8.1-8.1V67.4c0-28.2 32.8-51.1 73.4-51.1 40.3 0 73.2 22.9 73.2 51.1v59.3c0 4.5 3.6 8.1 8.1 8.1zM66.6 147.6c0 11.5 9.4 20.9 20.9 20.9s20.9-9.4 20.9-20.9c0-4.5-3.6-8.1-8.1-8.1s-8.1 3.6-8.1 8.1c0 2.6-2.1 4.6-4.7 4.6s-4.7-2.1-4.7-4.6c0-4.5-3.6-8.1-8.1-8.1s-8.1 3.6-8.1 8.1zm183.7 20.9c11.5 0 20.9-9.4 20.9-20.9 0-4.5-3.6-8.1-8.1-8.1s-8.1 3.6-8.1 8.1c0 2.6-2.1 4.6-4.7 4.6s-4.7-2.1-4.7-4.6c0-4.5-3.6-8.1-8.1-8.1s-8.1 3.6-8.1 8.1c0 11.5 9.4 20.9 20.9 20.9z" fill="currentColor"/></svg>