<svg xmlns="http://www.w3.org/2000/svg" viewBox="0 0 40 28.1"><path d="M34.8 9.7V5.1c0-2.8-2.3-5.1-5.1-5.1H10.3C7.5 0 5.2 2.3 5.2 5.1v4.6c-3 .7-5.2 3.4-5.2 6.5v11.3c0 .3.3.6.6.6s.6-.3.6-.6v-2.6h37.5v2.6c0 .3.3.6.6.6s.6-.3.6-.6V16.3c.1-3.2-2.2-5.9-5.1-6.6zM6.4 5.1c0-2.1 1.7-3.9 3.9-3.9h19.4c2.1 0 3.9 1.7 3.9 3.9v4.4h-2V8.3c0-1.7-1.4-3-3-3H24c-1.7 0-3 1.4-3 3v1.2h-2.1V8.3c0-1.7-1.4-3-3-3h-4.6c-1.7 0-3 1.4-3 3v1.2h-2V5.1zm24 4.4h-8.2V8.3c0-1 .8-1.8 1.8-1.8h4.6c1 0 1.8.8 1.8 1.8v1.2zm-12.7 0H9.5V8.3c0-1 .8-1.8 1.8-1.8h4.6c1 0 1.8.8 1.8 1.8v1.2zm-11 1.2h26.5c2.8 0 5.2 2.2 5.5 4.9H1.2c.3-2.7 2.7-4.9 5.5-4.9zm32 13H1.2v-6.8h37.5v6.8z"/></svg>