<svg xmlns="http://www.w3.org/2000/svg" viewBox="0 0 30.9 40.2"><metadata><?xpacket begin="﻿" id="W5M0MpCehiHzreSzNTczkc9d"?>
<x:xmpmeta xmlns:x="adobe:ns:meta/" x:xmptk="Adobe XMP Core 5.6-c137 79.159768, 2016/08/11-13:24:42        ">
   <rdf:RDF xmlns:rdf="http://www.w3.org/1999/02/22-rdf-syntax-ns#">
      <rdf:Description rdf:about=""/>
   </rdf:RDF>
</x:xmpmeta>
                                                                                                    
                                                                                                    
                                                                                                    
                                                                                                    
                                                                                                    
                                                                                                    
                                                                                                    
                                                                                                    
                                                                                                    
                                                                                                    
                                                                                                    
                                                                                                    
                                                                                                    
                                                                                                    
                                                                                                    
                                                                                                    
                                                                                                    
                                                                                                    
                                                                                                    
                                                                                                    
                           
<?xpacket end="w"?></metadata>
<path d="M30.9 10.2c0-.3-.2-.5-.4-.6-.1 0-3-1-4.2-4.1-.2-.5-.4-.9-.5-1.4-.9-2.4-3.3-4.1-6-4.1h-8.7C8.4 0 6 1.7 5.2 4.2c-.2.5-.4.9-.6 1.4C3.4 8.7.4 9.6.4 9.7c-.2.1-.4.3-.4.5 0 .1 0 .2.1.3 0 0 2.9 3.8 3.5 9.7.2 1.6 1.5 2.8 3 2.8H10L5 39.3v.4l.3.3h.2c.3 0 .5-.2.6-.4l1.1-3.7 8.1-6.1 8.1 6.1 1.1 3.7c.1.2.3.4.6.4h.2c.2 0 .3-.1.3-.3s.1-.3 0-.4l-5-16.3H24c1.6 0 2.9-1.2 3-2.8.6-6 3.5-9.7 3.5-9.8.4.1.4 0 .4-.2zM5.7 6c.2-.5.4-1 .5-1.5.7-2 2.7-3.4 4.8-3.4h8.7c2.2 0 4.1 1.4 4.8 3.4.3.5.5 1 .7 1.5.8 2.2 2.3 3.4 3.5 4.1-3.8 1.7-5.4 6.9-5.9 8.6H8.1C7.7 17 6 11.8 2.2 10.1 3.4 9.4 4.9 8.2 5.7 6zm2.2 28.2l2.4-8 4.1 3.1-6.5 4.9zm2.8-9.2l.6-1.9h8.4l.6 1.9-4.8 3.5-4.8-3.5zM23 34.2l-6.6-4.9 4.1-3.1 2.5 8zm3.1-14c-.1 1-.9 1.7-1.9 1.7H6.6c-1 0-1.8-.7-1.9-1.7-.3-4.2-1.8-7.3-2.7-8.9 3.8 1.9 5.1 8.1 5.1 8.1.1.3.3.5.6.5h15.6c.3 0 .5-.2.6-.5 0-.1 1.4-6.3 5.1-8.1-1 1.6-2.5 4.7-2.9 8.9z"/></svg>