<svg xmlns="http://www.w3.org/2000/svg" viewBox="0 0 36.4 34"><path d="M29.2 29.7c-.1-.3-.3-.6-.3-.7 0-.3.1-.9.1-1.6l.1-.5c.1-.9.2-2.1.2-2.8s-.1-1.9-.2-2.8c-.1-1.1-.2-1.8-.2-2.1 0-.2.1-.4.3-.7.1-.1.1-.2.2-.4l.1-.1c.5-.9 1.2-2.2.2-3.3-1.1-1.1-2.6-.3-3.8.3-.5.3-1.2.6-1.4.6-.3 0-1.1-.1-1.9-.1l-.9-.1c-1.9-.2-4.4-.5-6.5-.5-1.9 0-4.2.2-6 .4l-1.4.1c-.9.1-1.6.1-1.9.1-.2 0-.9-.3-1.4-.6-1.2-.6-2.7-1.3-3.8-.3-1.2 1.2-.1 2.8.3 3.4.1.1.1.2.2.3.1.3.3.6.3.7 0 .3-.1.9-.1 1.6l-.1.5c-.1 1-.2 2.1-.2 2.8V25c0 .5.1 1.2.1 1.8.1 1 .2 1.8.2 2.1 0 .1-.1.3-.2.5-.2.4-.3.5-.4.6l-.1.1c-.5.9-1.2 2.2-.2 3.2.4.6.9.7 1.3.7.8 0 1.7-.4 2.4-.7h.1c.5-.3 1.2-.6 1.4-.6h.7c.5 0 1.2.1 1.9.1h.3c1.9.2 4.4.5 6.5.5 1.9 0 4.2-.2 6-.4l1.4-.1c.8-.1 1.6-.1 1.9-.1.2 0 .9.3 1.4.6.8.4 1.6.8 2.4.8.5 0 .9-.1 1.3-.5 1.2-1.2.1-2.8-.3-3.4.1-.3.1-.4 0-.5zM2.1 30.9c.5-.7.7-1.3.7-1.8s-.1-1.4-.2-2.3c-.1-.9-.2-2.1-.2-2.7s.1-1.8.2-2.7c.1-.9.2-1.8.2-2.3 0-.5-.2-.9-.5-1.3-.1-.1-.2-.3-.2-.4-.6-1-.7-1.4-.5-1.6.1-.1.1-.1.3-.1.5 0 1.3.3 1.8.6.8.4 1.5.7 2 .7.4 0 1.1-.1 1.9-.1l1.2-.1c1.8-.2 4.4-.5 6.3-.5s4.5.3 6.3.5h.4c.4 0 .8.1 1.2.1.7.1 1.2.1 1.5.1.5 0 1-.2 1.6-.5.2-.1.3-.1.5-.2l.2-.1c.8-.3 1.6-.7 1.9-.4.2.2.1.6-.5 1.6-.5.7-.7 1.3-.7 1.8s.1 1.5.2 2.3c.1.9.2 2.1.2 2.7 0 .6-.1 1.8-.2 2.7-.1.8-.2 1.8-.2 2.3 0 .5.2.9.5 1.3.1.1.2.3.2.4.6 1 .7 1.4.5 1.6-.3.3-1.2-.1-1.9-.4l-.2-.1c-.8-.5-1.5-.7-2.1-.7-.4 0-1 .1-1.9.1l-1.2.1c-1.8.2-4.4.5-6.3.5s-4.5-.3-6.3-.5h-.4c-.5 0-.9-.1-1.2-.1-.7-.1-1.2-.1-1.5-.1-.5 0-1 .2-1.6.5-.1 0-.3.1-.4.2l-.2.1c-.8.3-1.6.7-1.9.4-.3-.2-.1-.6.5-1.6zM35.9 18c.5 2.1.9 3.7-.2 4.8-.3.3-.6.4-1 .4-.2 0-.3 0-.5-.1-.4 0-.8-.1-1.2-.2l-.4-.1c-.5-.1-.9-.2-1.5-.2H31l-.1-1.4h.1c.7 0 1.4.1 2 .2.1 0 .3 0 .4.1.5.1 1 .2 1.2 0 .5-.5.2-1.8-.2-3.6l-.1-.6c-.4-1.6-.9-3.6-.9-5.9 0-2 .3-4.1 1-6.4 0-.2.1-.4.1-.6.3-1.4.6-2.5.1-2.9-.3-.4-.9-.3-2.4 0l-.4.1C29.9 2.2 26.7 3 21.4 3c-5.2 0-8.4-.8-10.3-1.2-1.9-.4-2.4-.5-2.9 0s-.2 1.7.3 3.6c.1.3.1.6.2.9.4 1.6.8 3.5.8 5.7v.3c0 .1-.1.3-.1.5-.1.3-.1.6-.1.8v.1H7.9v-.1c0-.2 0-.3.1-.5v-.5c.1-.3.1-.5.1-.7 0-2.1-.4-3.9-.8-5.4-.1-.3-.2-.6-.2-.9v-.1c-.5-2-.9-3.6.1-4.8 1-1 2.2-.7 4.3-.3h.1c1.6.4 4.8 1.2 10 1.2S30 .8 31.6.4h.2c1.8-.4 3-.6 4 .4 1.1 1.1.7 2.6.3 4.5l-.1.5c-.7 2.1-1 4.1-1 6.1s.4 3.7.8 5.3c-.1.1 0 .4.1.8zM5.2 27.5V28.8h.6c.4 0 .8 0 1.4.1.4 0 .8.1 1.3.1h.2c1.8.2 4.3.5 6.2.5 2 0 4.6-.3 6.3-.6.5 0 1-.1 1.4-.1.6-.1 1.1-.1 1.4-.1h.7V28c0-.4 0-.9.1-1.5.1-.8.2-1.9.2-2.4s-.1-1.5-.2-2.5c0-.3 0-.6-.1-.9V19.4H24c-.6 0-1.4 0-2.8-.2l-.7-.1c-1.5-.1-3.7-.3-5.5-.3-1.7 0-4 .2-5.8.4l-.6.1c-.5 0-1 .1-1.4.1-.6.1-1.1.1-1.4.1h-.6v.7c0 .5 0 1-.1 1.5-.1.9-.2 2-.2 2.5s.1 1.6.3 2.5v.8zm1.1-3.4c0-.2 0-.5.1-.9.1-.5.1-1.1.1-1.6 0-.2 0-.4.1-.5v-.3c.4 0 .8-.1 1.4-.1.3 0 .6-.1.9-.1h.2c1.8-.2 4.2-.5 6-.5 1.6 0 3.8.2 5.5.4l.8.1c.3 0 .6.1.9.1.5.1 1 .1 1.4.1v.9c.1.7.2 1.8.2 2.3 0 .4-.1 1.2-.2 2.4 0 .2 0 .4-.1.5v.3c-.4 0-.8.1-1.3.1-.3 0-.6.1-.9.1h-.2c-1.8.2-4.2.5-6 .5s-4.3-.3-6-.5H9c-.3 0-.7-.1-.9-.1-.5-.1-.9-.1-1.3-.1 0-.3 0-.5-.1-.8-.3-.7-.4-1.8-.4-2.3z"/></svg>