<svg xmlns="http://www.w3.org/2000/svg" viewBox="0 0 29.9 30.5"><path d="M29.7 12.5H15.3v5.9h8.2c-.3 1.9-1.4 3.6-3.1 4.6l4.9 3.8c2.9-2.7 4.5-6.6 4.5-11.2.1-1 0-2.1-.1-3.1z" fill="#4285f4"/><path d="M20.5 23c-1.4.9-3.1 1.5-5.2 1.5-4 0-7.4-2.7-8.6-6.3l-5.1 3.9c2.6 5.2 7.9 8.4 13.6 8.4 4.1 0 7.6-1.4 10.1-3.7L20.5 23z" fill="#34a853"/><path d="M1.6 8.4c-2.2 4.3-2.2 9.4 0 13.7l5.1-3.9c-.6-1.9-.6-3.9 0-5.8l-5.1-4z" fill="#fbbc04"/><path d="M15.3 6c2.2 0 4.3.8 5.9 2.3L25.5 4c-2.8-2.6-6.4-4-10.2-4C9.5 0 4.2 3.3 1.6 8.4l5.1 3.9C7.9 8.7 11.3 6 15.3 6z" fill="#ea4335"/></svg>