<svg xmlns="http://www.w3.org/2000/svg" viewBox="0 0 32.9 29.8"><path d="M23.8 0c-2.8 0-5.3 1.3-7 3.7l-.3.4-.3-.4C14.4 1.3 11.8 0 9.1 0 4.1 0 0 4.5 0 9.9c0 2.6.9 5.1 2.7 7 1.1 1.3 8 7.7 11.2 10.7 1.1 1 2 1.8 2.1 2 .1.1.4.2.5.2.2 0 .3-.1.5-.2.2-.2.7-.7 1.4-1.3l.2-.1c3.3-3.1 11-10.2 12.3-11.8 1.3-1.7 2-4 2-6.3C32.9 4.5 28.8 0 23.8 0zM9.1 1.5c2.8 0 5.3 1.7 6.7 4.5.1.2.3.4.6.4s.6-.1.8-.4c1.3-2.7 3.9-4.4 6.7-4.4 4.2 0 7.6 3.8 7.6 8.5-.1 2-.7 3.9-1.8 5.4-1.3 1.5-11 10.5-13 12.3l-.3.3-.3-.3C13.1 25 5 17.3 3.8 16c-1.5-1.6-2.3-3.7-2.3-6 0-4.7 3.4-8.5 7.6-8.5z"/></svg>