<svg xmlns="http://www.w3.org/2000/svg" viewBox="0 0 57.3 52"><path d="M41.2 0c-4.9 0-9.5 2.4-12.5 6.5C25.6 2.4 21.1 0 16.1 0 7.2 0 0 7.9 0 17.6c0 4.7 1.7 9.1 4.7 12.4 2.6 2.9 21.9 20.8 22.7 21.6.4.3.9.5 1.3.5.5 0 .9-.2 1.3-.5 2.1-2 21.1-19.3 23.7-22.8 2.3-3.1 3.6-7.1 3.6-11.1C57.3 7.9 50.1 0 41.2 0zm9.4 26.4c-1.9 2.5-15.4 15.1-21.9 21.1-4.5-4.2-19-17.8-21.1-20.1-2.4-2.6-3.7-6.1-3.7-9.7C3.9 10 9.4 3.9 16.1 3.9c4.5 0 8.6 2.8 10.8 7.2.3.7 1 1.1 1.8 1.1.7 0 1.4-.4 1.8-1.1 2.1-4.4 6.3-7.2 10.8-7.2 6.7 0 12.2 6.1 12.2 13.7-.1 3.2-1.1 6.3-2.9 8.8z" fill="#231f20"/></svg>