<svg xmlns="http://www.w3.org/2000/svg" xmlns:xlink="http://www.w3.org/1999/xlink">

  <symbol id="heart" viewBox="0 0 20 17.3">
    <title>heart</title>
    <path d="M18.4 1.6c-2.1-2.1-5.6-2.1-7.7 0-.4.4-1 .4-1.4 0-2.1-2.1-5.6-2.1-7.7 0-2.1 2.1-2.1 5.6 0 7.7L9.3 17c.4.4 1 .4 1.4 0l7.7-7.7c2.1-2.1 2.1-5.6 0-7.7z" fill="currentColor"/>
  </symbol>

  <symbol id="heart-outline" viewBox="0 0 57.3 52">
    <title>heart</title>
    <path d="M41.2 0c-4.9 0-9.5 2.4-12.5 6.5C25.6 2.4 21.1 0 16.1 0 7.2 0 0 7.9 0 17.6c0 4.7 1.7 9.1 4.7 12.4 2.6 2.9 21.9 20.8 22.7 21.6.4.3.9.5 1.3.5.5 0 .9-.2 1.3-.5 2.1-2 21.1-19.3 23.7-22.8 2.3-3.1 3.6-7.1 3.6-11.1C57.3 7.9 50.1 0 41.2 0zm9.4 26.4c-1.9 2.5-15.4 15.1-21.9 21.1-4.5-4.2-19-17.8-21.1-20.1-2.4-2.6-3.7-6.1-3.7-9.7C3.9 10 9.4 3.9 16.1 3.9c4.5 0 8.6 2.8 10.8 7.2.3.7 1 1.1 1.8 1.1.7 0 1.4-.4 1.8-1.1 2.1-4.4 6.3-7.2 10.8-7.2 6.7 0 12.2 6.1 12.2 13.7-.1 3.2-1.1 6.3-2.9 8.8z" fill="currentColor"/>
  </symbol>

  <symbol id="arrow-right" viewBox="0 0 11.2 20">
  <title>next</title>
  <path d="M10.9 9.1L2.1.4C1.6-.1.8-.1.4.4c-.5.5-.5 1.3 0 1.7L8.3 10 .4 17.9c-.5.5-.5 1.3 0 1.7.2.3.5.4.8.4s.6-.1.9-.4l8.8-8.8c.2-.2.4-.6.4-.9-.1-.2-.2-.5-.4-.8z" fill="currentColor"/>
  </symbol>

  <symbol id="arrow-left" viewBox="0 0 11.2 20">
  <title>previous</title>
  <path d="M.4 9.1L9.2.3c.5-.5 1.3-.5 1.7 0 .5.5.5 1.3 0 1.7L3 10l7.9 7.9c.5.5.5 1.3 0 1.7-.3.3-.6.4-.9.4s-.6-.1-.9-.4L.3 10.8c-.2-.2-.3-.5-.3-.8 0-.3.1-.6.4-.9z" fill="currentColor"/>
  </symbol>

  <symbol id="search" viewBox="0 0 60.6 60">
  <title>search</title>
  <path d="M-.1 24.7c0 13.7 11.1 24.8 24.8 24.8 6.3 0 12-2.3 16.4-6.2l16.1 16.1c.4.4.9.6 1.4.6s1-.2 1.4-.6c.8-.8.8-2 0-2.8L44 40.5c3.5-4.3 5.6-9.7 5.6-15.7C49.5 11.1 38.5 0 24.7 0 11.1 0 .1 11.1-.1 24.7zm4.2.1C4.1 13.3 13.4 4 24.9 4s20.8 9.3 20.8 20.8-9.4 20.8-20.9 20.8C13.4 45.6 4 36.3 4.1 24.8z" fill="currentColor"/>
  </symbol>

  <symbol id="heart-outline" viewBox="0 0 57.3 52">
  <title>favorites</title>
  <path d="M41.2 0c-4.9 0-9.5 2.4-12.5 6.5C25.6 2.4 21.1 0 16.1 0 7.2 0 0 7.9 0 17.6c0 4.7 1.7 9.1 4.7 12.4 2.6 2.9 21.9 20.8 22.7 21.6.4.3.9.5 1.3.5.5 0 .9-.2 1.3-.5 2.1-2 21.1-19.3 23.7-22.8 2.3-3.1 3.6-7.1 3.6-11.1C57.3 7.9 50.1 0 41.2 0zm9.4 26.4c-1.9 2.5-15.4 15.1-21.9 21.1-4.5-4.2-19-17.8-21.1-20.1-2.4-2.6-3.7-6.1-3.7-9.7C3.9 10 9.4 3.9 16.1 3.9c4.5 0 8.6 2.8 10.8 7.2.3.7 1 1.1 1.8 1.1.7 0 1.4-.4 1.8-1.1 2.1-4.4 6.3-7.2 10.8-7.2 6.7 0 12.2 6.1 12.2 13.7-.1 3.2-1.1 6.3-2.9 8.8z" fill="currentColor"/>
  </symbol>

  <symbol id="close" viewBox="0 0 60.7 60.7">
  <title>close</title>
  <path d="M60.7 3l-3-3-27.3 27.4L3 0 0 3l27.4 27.4L0 57.7l3 3 27.4-27.4 27.4 27.4 2.9-3-27.4-27.3z"/>
  </symbol>

<symbol id="twitter" viewBox="0 0 35 35">
  <title>twitter</title>
  <path d="M25.6 11.7c.9-.1 1.7-.3 2.5-.7-.6.9-1.3 1.6-2.2 2.2v.5c0 .9-.1 1.7-.3 2.6-1.1 4.9-5.3 9.6-12.1 9.6-2.5 0-4.8-.7-6.7-1.9.4 0 .7.1 1 .1 2 0 3.9-.7 5.4-1.8-1.9 0-3.5-1.3-4.1-3 .3.1.5.1.8.1.4 0 .8-.1 1.2-.2-1.5-.3-2.7-1.3-3.2-2.7-.2-.5-.3-1-.3-1.5.6.3 1.3.5 2 .5-1.2-.8-1.9-2.1-1.9-3.6 0-.8.2-1.5.6-2.2 2.1 2.6 5.4 4.3 9 4.5-.1-.3-.1-.6-.1-1 0-2.4 2-4.3 4.4-4.3 1.3 0 2.4.5 3.2 1.4 1-.2 1.9-.6 2.8-1-.4 1-1.1 1.9-2 2.4M35 31.4V3.6c0-2-1.6-3.6-3.6-3.6H3.6C1.6 0 0 1.6 0 3.6v27.9c0 2 1.6 3.6 3.6 3.6h27.9c1.9-.1 3.5-1.7 3.5-3.7" fill="currentColor"/>
  </symbol>

<symbol id="instagram" viewBox="0 0 35 35">
  <title>instagram</title>
  <path d="M21.1 17.5c0-2-1.6-3.6-3.6-3.6s-3.6 1.6-3.6 3.6 1.6 3.6 3.6 3.6 3.6-1.6 3.6-3.6m3.4-5.7c0 .7-.6 1.3-1.3 1.3-.7 0-1.3-.6-1.3-1.3 0-.7.6-1.3 1.3-1.3.7 0 1.3.6 1.3 1.3m-1.4 5.7c0 3.1-2.5 5.6-5.6 5.6s-5.6-2.5-5.6-5.6c0-3.1 2.5-5.6 5.6-5.6s5.6 2.5 5.6 5.6m3.2 4.6v-9.3c0-2.3-1.9-4.1-4.1-4.1h-9.3c-2.3 0-4.1 1.9-4.1 4.1v9.3c0 2.3 1.9 4.1 4.1 4.1h9.3c2.2.1 4.1-1.8 4.1-4.1m1.9 0c0 3.4-2.7 6.1-6.1 6.1h-9.3c-3.4 0-6.1-2.7-6.1-6.1v-9.3c0-3.4 2.7-6.1 6.1-6.1h9.3c3.4 0 6.1 2.7 6.1 6.1v9.3zm6.8 9.3V3.5c0-2-1.6-3.6-3.6-3.6H3.6C1.6 0 0 1.6 0 3.5v27.9c0 2 1.6 3.6 3.6 3.6h27.9c1.9 0 3.5-1.6 3.5-3.6" fill="currentColor"/>
  </symbol>

<symbol id="facebook" viewBox="0 0 35 35">
  <title>facebook</title>
  <path d="M19.2 13.8h3.4l-.4 3.7h-3v10.9h-4.5V17.5h-2.2v-3.7h2.2v-2.2c0-3.1 1.3-4.9 4.9-4.9h3v3.7h-1.9c-1.4 0-1.5.5-1.5 1.5v1.9zM35 31.4V3.5c0-2-1.6-3.6-3.6-3.6H3.6C1.6 0 0 1.6 0 3.5v27.9c0 2 1.6 3.6 3.6 3.6h27.9c1.9 0 3.5-1.6 3.5-3.6" fill="currentColor"/>
  </symbol>

<symbol id="google" viewBox="0 0 29.9 30.5">
  <title>google</title>
  <path d="M29.7 12.5H15.3v5.9h8.2c-.3 1.9-1.4 3.6-3.1 4.6l4.9 3.8c2.9-2.7 4.5-6.6 4.5-11.2.1-1 0-2.1-.1-3.1z" fill="#4285f4"/><path d="M20.5 23c-1.4.9-3.1 1.5-5.2 1.5-4 0-7.4-2.7-8.6-6.3l-5.1 3.9c2.6 5.2 7.9 8.4 13.6 8.4 4.1 0 7.6-1.4 10.1-3.7L20.5 23z" fill="#34a853"/><path d="M1.6 8.4c-2.2 4.3-2.2 9.4 0 13.7l5.1-3.9c-.6-1.9-.6-3.9 0-5.8l-5.1-4z" fill="#fbbc04"/><path d="M15.3 6c2.2 0 4.3.8 5.9 2.3L25.5 4c-2.8-2.6-6.4-4-10.2-4C9.5 0 4.2 3.3 1.6 8.4l5.1 3.9C7.9 8.7 11.3 6 15.3 6z" fill="#ea4335"/>
  </symbol>

<symbol id="logo" viewBox="0 0 150 23.2">
  <title>modernist.</title>
  <path d="M142.2 8.2h-4V3.8h-4.5v4.4h-2.9v3.6h2.9v7c0 0.8 0.1 1.5 0.4 2.1 0.3 0.6 0.7 1 1.1 1.4 0.5 0.4 1 0.6 1.7 0.8 0.6 0.2 1.4 0.2 2.1 0.2 0.5 0 1.1 0 1.6-0.1 0.5-0.1 1.1-0.2 1.6-0.4V19c-0.2 0.2-0.5 0.3-0.9 0.3 -0.4 0.1-0.7 0.1-1 0.1 -0.5 0-0.9-0.1-1.2-0.2 -0.3-0.1-0.5-0.3-0.7-0.6 -0.1-0.2-0.2-0.5-0.3-0.9 0-0.3-0.1-0.7-0.1-1.1v-4.9h4V8.2zM129.4 9.7c-0.7-0.7-1.5-1.2-2.5-1.5 -1-0.3-2-0.4-2.9-0.4 -0.8 0-1.5 0.1-2.3 0.3 -0.7 0.2-1.4 0.5-2 0.9 -0.6 0.4-1 0.9-1.4 1.5 -0.4 0.6-0.5 1.4-0.5 2.2 0 0.9 0.2 1.7 0.6 2.2 0.4 0.6 0.8 1 1.4 1.3 0.6 0.3 1.2 0.5 1.8 0.7 0.7 0.2 1.3 0.3 1.8 0.4 0.6 0.1 1 0.3 1.4 0.5 0.4 0.2 0.6 0.5 0.6 0.9 0 0.4-0.2 0.7-0.6 0.8 -0.4 0.2-0.9 0.2-1.4 0.2 -0.7 0-1.3-0.1-1.8-0.4s-1-0.7-1.4-1.2l-2.8 3.1c0.7 0.7 1.6 1.3 2.7 1.6 1 0.3 2.1 0.4 3.1 0.4 0.8 0 1.6-0.1 2.4-0.2 0.8-0.2 1.5-0.4 2.2-0.8 0.6-0.4 1.2-0.9 1.6-1.5 0.4-0.6 0.6-1.4 0.6-2.3 0-0.9-0.2-1.7-0.6-2.2 -0.4-0.6-0.8-1-1.4-1.3 -0.6-0.3-1.2-0.6-1.8-0.7 -0.7-0.2-1.3-0.3-1.8-0.4 -0.6-0.1-1-0.3-1.4-0.5 -0.4-0.2-0.6-0.4-0.6-0.8 0-0.4 0.2-0.8 0.5-0.9 0.4-0.2 0.7-0.3 1.1-0.3 1.1 0 2 0.4 2.6 1.2L129.4 9.7zM111 5.4c0.5 0.5 1.1 0.8 1.9 0.8 0.7 0 1.3-0.3 1.9-0.8 0.5-0.5 0.8-1.1 0.8-1.9 0-0.7-0.3-1.3-0.8-1.9 -0.5-0.5-1.1-0.8-1.9-0.8 -0.7 0-1.3 0.3-1.9 0.8 -0.5 0.5-0.8 1.1-0.8 1.9C110.3 4.3 110.5 4.9 111 5.4M110.6 22.9h4.5V8.2h-4.5V22.9zM93.4 22.9h4.5v-7.3c0-0.5 0-0.9 0.1-1.4 0.1-0.4 0.2-0.8 0.4-1.2 0.2-0.4 0.5-0.6 0.8-0.8 0.4-0.2 0.8-0.3 1.4-0.3 0.6 0 1 0.1 1.3 0.4 0.3 0.2 0.5 0.6 0.7 0.9 0.2 0.4 0.2 0.8 0.3 1.3 0 0.5 0 0.9 0 1.3v7.2h4.5v-8.1c0-1-0.1-1.9-0.2-2.8 -0.1-0.8-0.4-1.6-0.8-2.2 -0.4-0.6-0.9-1.1-1.6-1.5 -0.7-0.4-1.6-0.5-2.8-0.5 -0.5 0-1 0.1-1.5 0.2 -0.5 0.1-0.9 0.3-1.2 0.5C99 8.8 98.6 9 98.4 9.3c-0.3 0.3-0.5 0.6-0.6 0.8h-0.1v-2h-4.4V22.9zM80.6 22.9h4.5v-6.1c0-0.7 0-1.4 0.1-2 0.1-0.6 0.3-1.1 0.5-1.6 0.3-0.4 0.7-0.8 1.2-1 0.5-0.2 1.2-0.4 2.1-0.4 0.3 0 0.7 0 1 0.1 0.3 0.1 0.6 0.1 1 0.2V8c-0.2-0.1-0.5-0.1-0.7-0.1 -0.3 0-0.5 0-0.8 0 -1 0-1.8 0.2-2.5 0.7 -0.7 0.5-1.2 1.1-1.7 2h-0.1V8.2h-4.5V22.9zM67.5 13.9c0-0.4 0.1-0.7 0.3-1 0.2-0.3 0.4-0.6 0.6-0.9 0.3-0.3 0.6-0.5 1-0.6 0.4-0.2 0.8-0.2 1.3-0.2 0.8 0 1.5 0.3 2 0.8 0.5 0.5 0.8 1.2 0.8 2H67.5zM74.2 18c-0.4 0.5-0.8 1-1.3 1.3 -0.5 0.3-1.1 0.5-1.9 0.5 -0.9 0-1.6-0.3-2.2-0.8 -0.6-0.5-1-1.2-1.2-2.1H78v-1.4c0-1.2-0.2-2.2-0.5-3.2 -0.3-0.9-0.8-1.8-1.4-2.4 -0.6-0.7-1.3-1.2-2.2-1.6 -0.9-0.4-1.8-0.5-2.9-0.5 -1.1 0-2.2 0.2-3.2 0.5 -1 0.4-1.9 0.9-2.6 1.6 -0.7 0.7-1.3 1.5-1.7 2.4 -0.4 0.9-0.6 2-0.6 3.2 0 1.2 0.2 2.2 0.6 3.2 0.4 0.9 1 1.8 1.7 2.4 0.7 0.7 1.6 1.2 2.6 1.6 1 0.4 2.1 0.5 3.2 0.5 1.2 0 2.3-0.3 3.5-0.8 1.1-0.5 2-1.2 2.8-2.1L74.2 18zM54.8 18.2c-0.6 0.7-1.5 1-2.7 1 -1.2 0-2-0.3-2.7-1 -0.6-0.7-1-1.6-1-2.7 0-1.1 0.3-2 1-2.7 0.6-0.7 1.5-1 2.7-1 1.2 0 2 0.3 2.7 1 0.6 0.7 1 1.6 1 2.7C55.8 16.6 55.4 17.5 54.8 18.2M59.9 0h-4.5v9.7h-0.1c-0.5-0.7-1.2-1.2-2-1.5 -0.8-0.3-1.7-0.4-2.6-0.4 -1 0-2 0.2-2.8 0.7 -0.8 0.4-1.5 1-2.1 1.7 -0.6 0.7-1 1.6-1.3 2.5 -0.3 0.9-0.5 1.9-0.5 3 0 1.1 0.2 2.1 0.5 3.1 0.3 0.9 0.8 1.7 1.5 2.4 0.6 0.7 1.4 1.2 2.3 1.6 0.9 0.4 1.9 0.6 3 0.6 0.5 0 1-0.1 1.5-0.2 0.5-0.1 0.9-0.3 1.3-0.5 0.4-0.2 0.7-0.5 1-0.7 0.3-0.3 0.5-0.5 0.7-0.8h0.1v1.9h4.2V0zM31.1 12.8c0.6-0.7 1.5-1 2.7-1 1.2 0 2 0.3 2.7 1 0.6 0.7 1 1.6 1 2.7 0 1.1-0.3 2-1 2.7 -0.6 0.7-1.5 1-2.7 1 -1.2 0-2-0.3-2.7-1 -0.6-0.7-1-1.6-1-2.7C30.2 14.4 30.5 13.5 31.1 12.8M26.3 18.7c0.4 0.9 1 1.8 1.7 2.4 0.7 0.7 1.6 1.2 2.6 1.6 1 0.4 2.1 0.5 3.2 0.5 1.1 0 2.2-0.2 3.2-0.5 1-0.4 1.9-0.9 2.6-1.6 0.7-0.7 1.3-1.5 1.7-2.4 0.4-0.9 0.6-2 0.6-3.2 0-1.2-0.2-2.2-0.6-3.2 -0.4-0.9-1-1.8-1.7-2.4C38.9 9.2 38 8.7 37 8.4c-1-0.4-2.1-0.5-3.2-0.5 -1.1 0-2.2 0.2-3.2 0.5 -1 0.4-1.9 0.9-2.6 1.6 -0.7 0.7-1.3 1.5-1.7 2.4 -0.4 0.9-0.6 2-0.6 3.2C25.6 16.7 25.9 17.8 26.3 18.7M0 22.9h4.5v-7.3c0-0.5 0-0.9 0.1-1.4C4.7 13.7 4.8 13.3 5 13c0.2-0.4 0.5-0.6 0.8-0.8 0.4-0.2 0.8-0.3 1.4-0.3 0.5 0 0.9 0.1 1.2 0.4 0.3 0.2 0.5 0.5 0.6 0.9 0.1 0.3 0.2 0.7 0.2 1.1 0 0.4 0 0.7 0 1v7.8h4.5v-7.8c0-0.4 0-0.9 0.1-1.3 0.1-0.4 0.2-0.8 0.5-1.1 0.2-0.3 0.5-0.5 0.8-0.7 0.4-0.2 0.8-0.3 1.3-0.3 0.7 0 1.3 0.2 1.6 0.7 0.3 0.5 0.4 1.1 0.4 1.8v8.6h4.5v-8.7c0-0.9-0.1-1.7-0.3-2.5 -0.2-0.8-0.5-1.5-0.8-2 -0.4-0.6-0.9-1-1.6-1.4 -0.7-0.3-1.5-0.5-2.5-0.5 -1.1 0-2 0.2-2.8 0.6 -0.7 0.4-1.4 1.1-1.9 2 -0.4-0.9-1-1.6-1.8-2C10.7 8 9.7 7.8 8.7 7.8c-0.5 0-1 0.1-1.5 0.2C6.7 8.2 6.3 8.3 6 8.6 5.6 8.8 5.3 9 5 9.3c-0.3 0.3-0.5 0.6-0.6 0.8H4.4v-2H0V22.9z" fill="currentColor"/><circle cx="147.2" cy="20.3" r="2.8" fill="#28cddc"/>
  </symbol>

<symbol id="logomark" viewBox="0 0 30.4 15.8">
  <title>modernist</title>
  <path d="M28 15.8c1.3 0 2.5-1.1 2.5-2.5s-1.1-2.5-2.5-2.5c-1.3 0-2.5 1.1-2.5 2.5s1.1 2.5 2.5 2.5" fill="#28cddc"/><path d="M22.1 15.5V4.9c0-3-1.6-4.4-4.3-4.4-2.3 0-4.2 1.3-5.1 2.7C12.2 1.6 10.8.5 8.6.5 6.3.5 4.4 1.9 3.8 2.8v-2H0v14.7h3.9V5.6c.6-.8 1.7-1.7 3-1.7 1.6 0 2.2 1 2.2 2.3v9.3H13V5.6c.5-.8 1.7-1.7 3-1.7 1.6 0 2.2 1 2.2 2.3v9.3h3.9z" fill="currentColor"/>
  </symbol>

<symbol id="shopping-bag" viewBox="0 0 342.9 407.5">
  <title>shopping bag</title>
  <path d="M222.8 116.5c4.5 0 8.1-3.6 8.1-8.1s-3.6-8.1-8.1-8.1H111.2c-4.5 0-8.1 3.6-8.1 8.1s3.6 8.1 8.1 8.1h111.6zm112-16.2h-55.4c-4.5 0-8.1 3.6-8.1 8.1s3.6 8.1 8.1 8.1h47.2v274.7H16.3V116.5h44.5c4.5 0 8.1-3.6 8.1-8.1s-3.6-8.1-8.1-8.1H8.1c-4.5 0-8.1 3.6-8.1 8.1v290.9c0 4.5 3.6 8.1 8.1 8.1h326.7c4.5 0 8.1-3.6 8.1-8.1V108.4c0-4.5-3.6-8.1-8.1-8.1zm-84.5 34.5c4.5 0 8.1-3.6 8.1-8.1V67.4c0-37.2-40.1-67.4-89.6-67.4-49.3 0-89.4 30.2-89.4 67.4v59.3c0 4.5 3.6 8.1 8.1 8.1s8.1-3.6 8.1-8.1V67.4c0-28.2 32.8-51.1 73.4-51.1 40.3 0 73.2 22.9 73.2 51.1v59.3c0 4.5 3.6 8.1 8.1 8.1zM66.6 147.6c0 11.5 9.4 20.9 20.9 20.9s20.9-9.4 20.9-20.9c0-4.5-3.6-8.1-8.1-8.1s-8.1 3.6-8.1 8.1c0 2.6-2.1 4.6-4.7 4.6s-4.7-2.1-4.7-4.6c0-4.5-3.6-8.1-8.1-8.1s-8.1 3.6-8.1 8.1zm183.7 20.9c11.5 0 20.9-9.4 20.9-20.9 0-4.5-3.6-8.1-8.1-8.1s-8.1 3.6-8.1 8.1c0 2.6-2.1 4.6-4.7 4.6s-4.7-2.1-4.7-4.6c0-4.5-3.6-8.1-8.1-8.1s-8.1 3.6-8.1 8.1c0 11.5 9.4 20.9 20.9 20.9z" fill="currentColor"/>
  </symbol>

<symbol id="star" viewBox="0 0 20 19">
  <title>rating</title>
  <path d="M20 7.3c0-.1-.1-.2-.2-.2l-6.7-.8L10.2.2c-.1-.2-.3-.2-.4-.1L6.9 6.2l-6.7.9c-.1 0-.2.1-.2.2s0 .2.1.3L5 12.1l-1.3 6.6c0 .1 0 .2.1.2.1.1.2.1.3 0l5.9-3.3 5.9 3.3h.2c.1-.1.1-.2.1-.2L15 12.1l4.9-4.6c.1-.1.1-.2.1-.2z" fill="currentColor" />
  </symbol>

<symbol id="plus" viewBox="0 0 20 20">
  <title>increment</title>
  <path d="M20 9h-9V0H9v9H0v2h9v9h2v-9h9z" fill="currentColor" />
  </symbol>

<symbol id="minus" viewBox="0 0 20 20">
  <title>decrement</title>
  <path d="M0 9h20v2H0z" fill="currentColor" />
  </symbol>
</svg>
