<svg xmlns="http://www.w3.org/2000/svg" xmlns:xlink="http://www.w3.org/1999/xlink">

  <symbol id="collapse" viewBox="0 0 30 16.7">
    <path d="M29.5 16.2c-.3.3-.8.5-1.2.5-.4 0-.9-.2-1.2-.5L15 4.1 2.9 16.2c-.3.3-.8.5-1.2.5-.4 0-.9-.2-1.2-.5-.7-.7-.7-1.7 0-2.4L13.8.5c.3-.3.8-.5 1.2-.5.4 0 .9.2 1.2.5l13.3 13.3c.7.7.7 1.7 0 2.4z" fill="currentColor"/>
  </symbol>

  <symbol id="heart" viewBox="0 0 20 17.3">
    <path d="M18.4 1.6c-2.1-2.1-5.6-2.1-7.7 0-.4.4-1 .4-1.4 0-2.1-2.1-5.6-2.1-7.7 0-2.1 2.1-2.1 5.6 0 7.7L9.3 17c.4.4 1 .4 1.4 0l7.7-7.7c2.1-2.1 2.1-5.6 0-7.7z" fill="currentColor"/>
  </symbol>

  <symbol id="favorites-desktop" viewBox="0 0 57.3 52">
    <path d="M41.2 0c-4.9 0-9.5 2.4-12.5 6.5C25.6 2.4 21.1 0 16.1 0 7.2 0 0 7.9 0 17.6c0 4.7 1.7 9.1 4.7 12.4 2.6 2.9 21.9 20.8 22.7 21.6.4.3.9.5 1.3.5.5 0 .9-.2 1.3-.5 2.1-2 21.1-19.3 23.7-22.8 2.3-3.1 3.6-7.1 3.6-11.1C57.3 7.9 50.1 0 41.2 0zm9.4 26.4c-1.9 2.5-15.4 15.1-21.9 21.1-4.5-4.2-19-17.8-21.1-20.1-2.4-2.6-3.7-6.1-3.7-9.7C3.9 10 9.4 3.9 16.1 3.9c4.5 0 8.6 2.8 10.8 7.2.3.7 1 1.1 1.8 1.1.7 0 1.4-.4 1.8-1.1 2.1-4.4 6.3-7.2 10.8-7.2 6.7 0 12.2 6.1 12.2 13.7-.1 3.2-1.1 6.3-2.9 8.8z" fill="currentColor"/>
  </symbol>

  <symbol id="favorites" viewBox="0 0 32.9 29.8">
    <path d="M23.8 0c-2.8 0-5.3 1.3-7 3.7l-.3.4-.3-.4C14.4 1.3 11.8 0 9.1 0 4.1 0 0 4.5 0 9.9c0 2.6.9 5.1 2.7 7 1.1 1.3 8 7.7 11.2 10.7 1.1 1 2 1.8 2.1 2 .1.1.4.2.5.2.2 0 .3-.1.5-.2.2-.2.7-.7 1.4-1.3l.2-.1c3.3-3.1 11-10.2 12.3-11.8 1.3-1.7 2-4 2-6.3C32.9 4.5 28.8 0 23.8 0zM9.1 1.5c2.8 0 5.3 1.7 6.7 4.5.1.2.3.4.6.4s.6-.1.8-.4c1.3-2.7 3.9-4.4 6.7-4.4 4.2 0 7.6 3.8 7.6 8.5-.1 2-.7 3.9-1.8 5.4-1.3 1.5-11 10.5-13 12.3l-.3.3-.3-.3C13.1 25 5 17.3 3.8 16c-1.5-1.6-2.3-3.7-2.3-6 0-4.7 3.4-8.5 7.6-8.5z" fill="currentColor"/>
  </symbol>

  <symbol id="arrow-right-long" viewBox="0 0 40 31.6">
    <path d="M40 15.8c0-.6-.2-1.1-.6-1.6L25.8.6c-.8-.9-2.2-.9-3.1 0-.9.9-.9 2.2 0 3.1l9.9 9.9H2.2c-1.2 0-2.2 1-2.2 2.2C0 17 1 18 2.2 18h30.5l-10 10c-.9.9-.9 2.2 0 3.1.4.4 1 .6 1.5.6.6 0 1.1-.2 1.5-.6l13.6-13.6c.5-.5.7-1.1.7-1.7z" fill="currentColor"/>
  </symbol>

  <symbol id="arrow-right" viewBox="0 0 11.2 20">
    <path d="M10.9 9.1L2.1.4C1.6-.1.8-.1.4.4c-.5.5-.5 1.3 0 1.7L8.3 10 .4 17.9c-.5.5-.5 1.3 0 1.7.2.3.5.4.8.4s.6-.1.9-.4l8.8-8.8c.2-.2.4-.6.4-.9-.1-.2-.2-.5-.4-.8z" fill="currentColor"/>
  </symbol>

  <symbol id="arrow-left" viewBox="0 0 11.2 20">
    <path d="M.4 9.1L9.2.3c.5-.5 1.3-.5 1.7 0 .5.5.5 1.3 0 1.7L3 10l7.9 7.9c.5.5.5 1.3 0 1.7-.3.3-.6.4-.9.4s-.6-.1-.9-.4L.3 10.8c-.2-.2-.3-.5-.3-.8 0-.3.1-.6.4-.9z" fill="currentColor"/>
  </symbol>

  <symbol id="arrow-right-btn" viewBox="0 0 24 24">
    <path d="M10 6L8.59 7.41 13.17 12l-4.58 4.59L10 18l6-6z" fill="currentColor"></path>
  </symbol>

  <symbol id="arrow-left-btn" viewBox="0 0 24 24">
    <path d="M15.41 7.41L14 6l-6 6 6 6 1.41-1.41L10.83 12z" fill="currentColor"></path>
  </symbol>

  <symbol id="search" viewBox="0 0 60.6 60">
    <path d="M-.1 24.7c0 13.7 11.1 24.8 24.8 24.8 6.3 0 12-2.3 16.4-6.2l16.1 16.1c.4.4.9.6 1.4.6s1-.2 1.4-.6c.8-.8.8-2 0-2.8L44 40.5c3.5-4.3 5.6-9.7 5.6-15.7C49.5 11.1 38.5 0 24.7 0 11.1 0 .1 11.1-.1 24.7zm4.2.1C4.1 13.3 13.4 4 24.9 4s20.8 9.3 20.8 20.8-9.4 20.8-20.9 20.8C13.4 45.6 4 36.3 4.1 24.8z" fill="currentColor"/>
  </symbol>

  <symbol id="heart-outline" viewBox="0 0 57.3 52">
    <path d="M41.2 0c-4.9 0-9.5 2.4-12.5 6.5C25.6 2.4 21.1 0 16.1 0 7.2 0 0 7.9 0 17.6c0 4.7 1.7 9.1 4.7 12.4 2.6 2.9 21.9 20.8 22.7 21.6.4.3.9.5 1.3.5.5 0 .9-.2 1.3-.5 2.1-2 21.1-19.3 23.7-22.8 2.3-3.1 3.6-7.1 3.6-11.1C57.3 7.9 50.1 0 41.2 0zm9.4 26.4c-1.9 2.5-15.4 15.1-21.9 21.1-4.5-4.2-19-17.8-21.1-20.1-2.4-2.6-3.7-6.1-3.7-9.7C3.9 10 9.4 3.9 16.1 3.9c4.5 0 8.6 2.8 10.8 7.2.3.7 1 1.1 1.8 1.1.7 0 1.4-.4 1.8-1.1 2.1-4.4 6.3-7.2 10.8-7.2 6.7 0 12.2 6.1 12.2 13.7-.1 3.2-1.1 6.3-2.9 8.8z" fill="currentColor"/>
  </symbol>

  <symbol id="close" viewBox="0 0 60 60">
    <path d="M59.6 54.7L34.8 30 59.6 5.3c.6-.6.6-1.5 0-2L56.8.5c-.2-.2-.4-.3-.6-.3-.2-.2-.7-.2-1.2 0-.1 0-.2.1-.3.2L30 25.2 5.2.4C4.9.1 4.5 0 4.3 0c-.3 0-.7.1-1 .4L.4 3.3c-.5.5-.5 1.5 0 1.9L25.1 30 .4 54.7c-.1.1-.1.2-.2.3-.1.3-.2.5-.2.7 0 .2.1.5.2.7 0 .1.1.2.2.3l2.8 2.8c.6.6 1.5.6 2 0L30 34.8l24.8 24.8c.4.4.8.4 1 .4.5 0 .9-.3 1-.4l2.7-2.8c.6-.7.5-1.6.1-2.1z" fill="currentColor"/>
  </symbol>

<symbol id="twitter" viewBox="0 0 35 35">
  <path d="M25.6 11.7c.9-.1 1.7-.3 2.5-.7-.6.9-1.3 1.6-2.2 2.2v.5c0 .9-.1 1.7-.3 2.6-1.1 4.9-5.3 9.6-12.1 9.6-2.5 0-4.8-.7-6.7-1.9.4 0 .7.1 1 .1 2 0 3.9-.7 5.4-1.8-1.9 0-3.5-1.3-4.1-3 .3.1.5.1.8.1.4 0 .8-.1 1.2-.2-1.5-.3-2.7-1.3-3.2-2.7-.2-.5-.3-1-.3-1.5.6.3 1.3.5 2 .5-1.2-.8-1.9-2.1-1.9-3.6 0-.8.2-1.5.6-2.2 2.1 2.6 5.4 4.3 9 4.5-.1-.3-.1-.6-.1-1 0-2.4 2-4.3 4.4-4.3 1.3 0 2.4.5 3.2 1.4 1-.2 1.9-.6 2.8-1-.4 1-1.1 1.9-2 2.4M35 31.4V3.6c0-2-1.6-3.6-3.6-3.6H3.6C1.6 0 0 1.6 0 3.6v27.9c0 2 1.6 3.6 3.6 3.6h27.9c1.9-.1 3.5-1.7 3.5-3.7" fill="currentColor"/>
</symbol>

<symbol id="instagram" viewBox="0 0 35 35">
  <path d="M21.1 17.5c0-2-1.6-3.6-3.6-3.6s-3.6 1.6-3.6 3.6 1.6 3.6 3.6 3.6 3.6-1.6 3.6-3.6m3.4-5.7c0 .7-.6 1.3-1.3 1.3-.7 0-1.3-.6-1.3-1.3 0-.7.6-1.3 1.3-1.3.7 0 1.3.6 1.3 1.3m-1.4 5.7c0 3.1-2.5 5.6-5.6 5.6s-5.6-2.5-5.6-5.6c0-3.1 2.5-5.6 5.6-5.6s5.6 2.5 5.6 5.6m3.2 4.6v-9.3c0-2.3-1.9-4.1-4.1-4.1h-9.3c-2.3 0-4.1 1.9-4.1 4.1v9.3c0 2.3 1.9 4.1 4.1 4.1h9.3c2.2.1 4.1-1.8 4.1-4.1m1.9 0c0 3.4-2.7 6.1-6.1 6.1h-9.3c-3.4 0-6.1-2.7-6.1-6.1v-9.3c0-3.4 2.7-6.1 6.1-6.1h9.3c3.4 0 6.1 2.7 6.1 6.1v9.3zm6.8 9.3V3.5c0-2-1.6-3.6-3.6-3.6H3.6C1.6 0 0 1.6 0 3.5v27.9c0 2 1.6 3.6 3.6 3.6h27.9c1.9 0 3.5-1.6 3.5-3.6" fill="currentColor"/>
</symbol>

<symbol id="facebook" viewBox="0 0 35 35">
  <path d="M19.2 13.8h3.4l-.4 3.7h-3v10.9h-4.5V17.5h-2.2v-3.7h2.2v-2.2c0-3.1 1.3-4.9 4.9-4.9h3v3.7h-1.9c-1.4 0-1.5.5-1.5 1.5v1.9zM35 31.4V3.5c0-2-1.6-3.6-3.6-3.6H3.6C1.6 0 0 1.6 0 3.5v27.9c0 2 1.6 3.6 3.6 3.6h27.9c1.9 0 3.5-1.6 3.5-3.6" fill="currentColor"/>
</symbol>

<symbol id="google" viewBox="0 0 29.9 30.5">
  <path d="M29.7 12.5H15.3v5.9h8.2c-.3 1.9-1.4 3.6-3.1 4.6l4.9 3.8c2.9-2.7 4.5-6.6 4.5-11.2.1-1 0-2.1-.1-3.1z" fill="#4285f4"/><path d="M20.5 23c-1.4.9-3.1 1.5-5.2 1.5-4 0-7.4-2.7-8.6-6.3l-5.1 3.9c2.6 5.2 7.9 8.4 13.6 8.4 4.1 0 7.6-1.4 10.1-3.7L20.5 23z" fill="#34a853"/><path d="M1.6 8.4c-2.2 4.3-2.2 9.4 0 13.7l5.1-3.9c-.6-1.9-.6-3.9 0-5.8l-5.1-4z" fill="#fbbc04"/><path d="M15.3 6c2.2 0 4.3.8 5.9 2.3L25.5 4c-2.8-2.6-6.4-4-10.2-4C9.5 0 4.2 3.3 1.6 8.4l5.1 3.9C7.9 8.7 11.3 6 15.3 6z" fill="#ea4335"/>
</symbol>

<symbol id="modernist" viewBox="0 0 150 23.2">
  <path d="M142.2 8.2h-4V3.8h-4.5v4.4h-2.9v3.6h2.9v7c0 0.8 0.1 1.5 0.4 2.1 0.3 0.6 0.7 1 1.1 1.4 0.5 0.4 1 0.6 1.7 0.8 0.6 0.2 1.4 0.2 2.1 0.2 0.5 0 1.1 0 1.6-0.1 0.5-0.1 1.1-0.2 1.6-0.4V19c-0.2 0.2-0.5 0.3-0.9 0.3 -0.4 0.1-0.7 0.1-1 0.1 -0.5 0-0.9-0.1-1.2-0.2 -0.3-0.1-0.5-0.3-0.7-0.6 -0.1-0.2-0.2-0.5-0.3-0.9 0-0.3-0.1-0.7-0.1-1.1v-4.9h4V8.2zM129.4 9.7c-0.7-0.7-1.5-1.2-2.5-1.5 -1-0.3-2-0.4-2.9-0.4 -0.8 0-1.5 0.1-2.3 0.3 -0.7 0.2-1.4 0.5-2 0.9 -0.6 0.4-1 0.9-1.4 1.5 -0.4 0.6-0.5 1.4-0.5 2.2 0 0.9 0.2 1.7 0.6 2.2 0.4 0.6 0.8 1 1.4 1.3 0.6 0.3 1.2 0.5 1.8 0.7 0.7 0.2 1.3 0.3 1.8 0.4 0.6 0.1 1 0.3 1.4 0.5 0.4 0.2 0.6 0.5 0.6 0.9 0 0.4-0.2 0.7-0.6 0.8 -0.4 0.2-0.9 0.2-1.4 0.2 -0.7 0-1.3-0.1-1.8-0.4s-1-0.7-1.4-1.2l-2.8 3.1c0.7 0.7 1.6 1.3 2.7 1.6 1 0.3 2.1 0.4 3.1 0.4 0.8 0 1.6-0.1 2.4-0.2 0.8-0.2 1.5-0.4 2.2-0.8 0.6-0.4 1.2-0.9 1.6-1.5 0.4-0.6 0.6-1.4 0.6-2.3 0-0.9-0.2-1.7-0.6-2.2 -0.4-0.6-0.8-1-1.4-1.3 -0.6-0.3-1.2-0.6-1.8-0.7 -0.7-0.2-1.3-0.3-1.8-0.4 -0.6-0.1-1-0.3-1.4-0.5 -0.4-0.2-0.6-0.4-0.6-0.8 0-0.4 0.2-0.8 0.5-0.9 0.4-0.2 0.7-0.3 1.1-0.3 1.1 0 2 0.4 2.6 1.2L129.4 9.7zM111 5.4c0.5 0.5 1.1 0.8 1.9 0.8 0.7 0 1.3-0.3 1.9-0.8 0.5-0.5 0.8-1.1 0.8-1.9 0-0.7-0.3-1.3-0.8-1.9 -0.5-0.5-1.1-0.8-1.9-0.8 -0.7 0-1.3 0.3-1.9 0.8 -0.5 0.5-0.8 1.1-0.8 1.9C110.3 4.3 110.5 4.9 111 5.4M110.6 22.9h4.5V8.2h-4.5V22.9zM93.4 22.9h4.5v-7.3c0-0.5 0-0.9 0.1-1.4 0.1-0.4 0.2-0.8 0.4-1.2 0.2-0.4 0.5-0.6 0.8-0.8 0.4-0.2 0.8-0.3 1.4-0.3 0.6 0 1 0.1 1.3 0.4 0.3 0.2 0.5 0.6 0.7 0.9 0.2 0.4 0.2 0.8 0.3 1.3 0 0.5 0 0.9 0 1.3v7.2h4.5v-8.1c0-1-0.1-1.9-0.2-2.8 -0.1-0.8-0.4-1.6-0.8-2.2 -0.4-0.6-0.9-1.1-1.6-1.5 -0.7-0.4-1.6-0.5-2.8-0.5 -0.5 0-1 0.1-1.5 0.2 -0.5 0.1-0.9 0.3-1.2 0.5C99 8.8 98.6 9 98.4 9.3c-0.3 0.3-0.5 0.6-0.6 0.8h-0.1v-2h-4.4V22.9zM80.6 22.9h4.5v-6.1c0-0.7 0-1.4 0.1-2 0.1-0.6 0.3-1.1 0.5-1.6 0.3-0.4 0.7-0.8 1.2-1 0.5-0.2 1.2-0.4 2.1-0.4 0.3 0 0.7 0 1 0.1 0.3 0.1 0.6 0.1 1 0.2V8c-0.2-0.1-0.5-0.1-0.7-0.1 -0.3 0-0.5 0-0.8 0 -1 0-1.8 0.2-2.5 0.7 -0.7 0.5-1.2 1.1-1.7 2h-0.1V8.2h-4.5V22.9zM67.5 13.9c0-0.4 0.1-0.7 0.3-1 0.2-0.3 0.4-0.6 0.6-0.9 0.3-0.3 0.6-0.5 1-0.6 0.4-0.2 0.8-0.2 1.3-0.2 0.8 0 1.5 0.3 2 0.8 0.5 0.5 0.8 1.2 0.8 2H67.5zM74.2 18c-0.4 0.5-0.8 1-1.3 1.3 -0.5 0.3-1.1 0.5-1.9 0.5 -0.9 0-1.6-0.3-2.2-0.8 -0.6-0.5-1-1.2-1.2-2.1H78v-1.4c0-1.2-0.2-2.2-0.5-3.2 -0.3-0.9-0.8-1.8-1.4-2.4 -0.6-0.7-1.3-1.2-2.2-1.6 -0.9-0.4-1.8-0.5-2.9-0.5 -1.1 0-2.2 0.2-3.2 0.5 -1 0.4-1.9 0.9-2.6 1.6 -0.7 0.7-1.3 1.5-1.7 2.4 -0.4 0.9-0.6 2-0.6 3.2 0 1.2 0.2 2.2 0.6 3.2 0.4 0.9 1 1.8 1.7 2.4 0.7 0.7 1.6 1.2 2.6 1.6 1 0.4 2.1 0.5 3.2 0.5 1.2 0 2.3-0.3 3.5-0.8 1.1-0.5 2-1.2 2.8-2.1L74.2 18zM54.8 18.2c-0.6 0.7-1.5 1-2.7 1 -1.2 0-2-0.3-2.7-1 -0.6-0.7-1-1.6-1-2.7 0-1.1 0.3-2 1-2.7 0.6-0.7 1.5-1 2.7-1 1.2 0 2 0.3 2.7 1 0.6 0.7 1 1.6 1 2.7C55.8 16.6 55.4 17.5 54.8 18.2M59.9 0h-4.5v9.7h-0.1c-0.5-0.7-1.2-1.2-2-1.5 -0.8-0.3-1.7-0.4-2.6-0.4 -1 0-2 0.2-2.8 0.7 -0.8 0.4-1.5 1-2.1 1.7 -0.6 0.7-1 1.6-1.3 2.5 -0.3 0.9-0.5 1.9-0.5 3 0 1.1 0.2 2.1 0.5 3.1 0.3 0.9 0.8 1.7 1.5 2.4 0.6 0.7 1.4 1.2 2.3 1.6 0.9 0.4 1.9 0.6 3 0.6 0.5 0 1-0.1 1.5-0.2 0.5-0.1 0.9-0.3 1.3-0.5 0.4-0.2 0.7-0.5 1-0.7 0.3-0.3 0.5-0.5 0.7-0.8h0.1v1.9h4.2V0zM31.1 12.8c0.6-0.7 1.5-1 2.7-1 1.2 0 2 0.3 2.7 1 0.6 0.7 1 1.6 1 2.7 0 1.1-0.3 2-1 2.7 -0.6 0.7-1.5 1-2.7 1 -1.2 0-2-0.3-2.7-1 -0.6-0.7-1-1.6-1-2.7C30.2 14.4 30.5 13.5 31.1 12.8M26.3 18.7c0.4 0.9 1 1.8 1.7 2.4 0.7 0.7 1.6 1.2 2.6 1.6 1 0.4 2.1 0.5 3.2 0.5 1.1 0 2.2-0.2 3.2-0.5 1-0.4 1.9-0.9 2.6-1.6 0.7-0.7 1.3-1.5 1.7-2.4 0.4-0.9 0.6-2 0.6-3.2 0-1.2-0.2-2.2-0.6-3.2 -0.4-0.9-1-1.8-1.7-2.4C38.9 9.2 38 8.7 37 8.4c-1-0.4-2.1-0.5-3.2-0.5 -1.1 0-2.2 0.2-3.2 0.5 -1 0.4-1.9 0.9-2.6 1.6 -0.7 0.7-1.3 1.5-1.7 2.4 -0.4 0.9-0.6 2-0.6 3.2C25.6 16.7 25.9 17.8 26.3 18.7M0 22.9h4.5v-7.3c0-0.5 0-0.9 0.1-1.4C4.7 13.7 4.8 13.3 5 13c0.2-0.4 0.5-0.6 0.8-0.8 0.4-0.2 0.8-0.3 1.4-0.3 0.5 0 0.9 0.1 1.2 0.4 0.3 0.2 0.5 0.5 0.6 0.9 0.1 0.3 0.2 0.7 0.2 1.1 0 0.4 0 0.7 0 1v7.8h4.5v-7.8c0-0.4 0-0.9 0.1-1.3 0.1-0.4 0.2-0.8 0.5-1.1 0.2-0.3 0.5-0.5 0.8-0.7 0.4-0.2 0.8-0.3 1.3-0.3 0.7 0 1.3 0.2 1.6 0.7 0.3 0.5 0.4 1.1 0.4 1.8v8.6h4.5v-8.7c0-0.9-0.1-1.7-0.3-2.5 -0.2-0.8-0.5-1.5-0.8-2 -0.4-0.6-0.9-1-1.6-1.4 -0.7-0.3-1.5-0.5-2.5-0.5 -1.1 0-2 0.2-2.8 0.6 -0.7 0.4-1.4 1.1-1.9 2 -0.4-0.9-1-1.6-1.8-2C10.7 8 9.7 7.8 8.7 7.8c-0.5 0-1 0.1-1.5 0.2C6.7 8.2 6.3 8.3 6 8.6 5.6 8.8 5.3 9 5 9.3c-0.3 0.3-0.5 0.6-0.6 0.8H4.4v-2H0V22.9z" fill="currentColor"/><circle cx="147.2" cy="20.3" r="2.8" fill="#25BBEA"/>
</symbol>

<symbol id="logomark" viewBox="0 0 30.4 15.8">
  <path d="M28 15.8c1.3 0 2.5-1.1 2.5-2.5s-1.1-2.5-2.5-2.5c-1.3 0-2.5 1.1-2.5 2.5s1.1 2.5 2.5 2.5" fill="#19d6ff"/><path d="M22.1 15.5V4.9c0-3-1.6-4.4-4.3-4.4-2.3 0-4.2 1.3-5.1 2.7C12.2 1.6 10.8.5 8.6.5 6.3.5 4.4 1.9 3.8 2.8v-2H0v14.7h3.9V5.6c.6-.8 1.7-1.7 3-1.7 1.6 0 2.2 1 2.2 2.3v9.3H13V5.6c.5-.8 1.7-1.7 3-1.7 1.6 0 2.2 1 2.2 2.3v9.3h3.9z" fill="currentColor"/>
</symbol>

<symbol id="shopping-bag" viewBox="0 0 342.9 407.5">
  <path d="M222.8 116.5c4.5 0 8.1-3.6 8.1-8.1s-3.6-8.1-8.1-8.1H111.2c-4.5 0-8.1 3.6-8.1 8.1s3.6 8.1 8.1 8.1h111.6zm112-16.2h-55.4c-4.5 0-8.1 3.6-8.1 8.1s3.6 8.1 8.1 8.1h47.2v274.7H16.3V116.5h44.5c4.5 0 8.1-3.6 8.1-8.1s-3.6-8.1-8.1-8.1H8.1c-4.5 0-8.1 3.6-8.1 8.1v290.9c0 4.5 3.6 8.1 8.1 8.1h326.7c4.5 0 8.1-3.6 8.1-8.1V108.4c0-4.5-3.6-8.1-8.1-8.1zm-84.5 34.5c4.5 0 8.1-3.6 8.1-8.1V67.4c0-37.2-40.1-67.4-89.6-67.4-49.3 0-89.4 30.2-89.4 67.4v59.3c0 4.5 3.6 8.1 8.1 8.1s8.1-3.6 8.1-8.1V67.4c0-28.2 32.8-51.1 73.4-51.1 40.3 0 73.2 22.9 73.2 51.1v59.3c0 4.5 3.6 8.1 8.1 8.1zM66.6 147.6c0 11.5 9.4 20.9 20.9 20.9s20.9-9.4 20.9-20.9c0-4.5-3.6-8.1-8.1-8.1s-8.1 3.6-8.1 8.1c0 2.6-2.1 4.6-4.7 4.6s-4.7-2.1-4.7-4.6c0-4.5-3.6-8.1-8.1-8.1s-8.1 3.6-8.1 8.1zm183.7 20.9c11.5 0 20.9-9.4 20.9-20.9 0-4.5-3.6-8.1-8.1-8.1s-8.1 3.6-8.1 8.1c0 2.6-2.1 4.6-4.7 4.6s-4.7-2.1-4.7-4.6c0-4.5-3.6-8.1-8.1-8.1s-8.1 3.6-8.1 8.1c0 11.5 9.4 20.9 20.9 20.9z" fill="currentColor"/>
</symbol>

<symbol id="star" viewBox="0 0 20 19">
  <path d="M20 7.3c0-.1-.1-.2-.2-.2l-6.7-.8L10.2.2c-.1-.2-.3-.2-.4-.1L6.9 6.2l-6.7.9c-.1 0-.2.1-.2.2s0 .2.1.3L5 12.1l-1.3 6.6c0 .1 0 .2.1.2.1.1.2.1.3 0l5.9-3.3 5.9 3.3h.2c.1-.1.1-.2.1-.2L15 12.1l4.9-4.6c.1-.1.1-.2.1-.2z" fill="currentColor" />
</symbol>

<symbol id="plus" viewBox="0 0 20 20">
  <path d="M20 9h-9V0H9v9H0v2h9v9h2v-9h9z" fill="currentColor" />
</symbol>

<symbol id="minus" viewBox="0 0 20 20">
  <path d="M0 9h20v2H0z" fill="currentColor" />
</symbol>

<symbol id="check" viewBox="0 0 30 30">
  <path d="M22.4 9.7c.5.5.5 1.3 0 1.7l-8.8 8.8c-.2.2-.6.4-.9.4-.3 0-.6-.1-.9-.4L7.6 16c-.5-.5-.5-1.3 0-1.7.5-.5 1.3-.5 1.7 0l3.4 3.4 7.9-7.9c.5-.5 1.3-.5 1.8-.1zM30 15c0 8.3-6.7 15-15 15S0 23.3 0 15 6.7 0 15 0s15 6.7 15 15zm-2.4 0C27.6 8.1 22 2.4 15 2.4 8.1 2.4 2.4 8.1 2.4 15 2.4 21.9 8 27.6 15 27.6c6.9 0 12.6-5.7 12.6-12.6z" fill="currentColor"/>
</symbol>

<symbol id="remove" viewBox="0 0 14.3 16.2">
  <path d="M12.3 3.6v10.5c0 .8-.7 1.5-1.5 1.5H3.5c-.8 0-1.5-.7-1.5-1.5V3.6m2.2 0V2.1c0-.8.7-1.5 1.5-1.5h2.9c.8 0 1.5.7 1.5 1.5v1.5m-9.5 0h13.2M5.4 7v5.2M8.9 7v5.2" style="fill:none;stroke-linecap:round;stroke-linejoin:round;stroke-miterlimit:3.75" />
</symbol>

  <symbol id="sofas" viewBox="0 0 40 23.1">
    <path d="M37.5 7.7c-.5 0-1 .2-1.4.4V3.6c0-2-1.6-3.6-3.6-3.6h-25c-2 0-3.6 1.6-3.6 3.6v4.5c-.4-.3-.9-.4-1.4-.4C1.1 7.7 0 8.8 0 10.2V18c0 1 .8 1.9 1.9 1.9h2v2.6c0 .3.3.6.6.6s.6-.3.6-.6v-2.6h29.8v2.6c0 .3.3.6.6.6s.6-.3.6-.6v-2.6h2c1 0 1.9-.8 1.9-1.9v-7.8c0-1.4-1.1-2.5-2.5-2.5zM5.1 12.9c0-.6.5-1.1 1.1-1.1h12.2c.6 0 1 .5 1 1v2.7H5.1v-2.6zM5 3.6c0-1.4 1.1-2.5 2.5-2.5h24.9c1.4 0 2.5 1.1 2.5 2.5v7.3c-.3-.2-.7-.3-1.1-.3H21.7c-.6 0-1.2.3-1.7.7-.4-.5-1-.7-1.7-.7H6.2c-.4 0-.8.1-1.1.3L5 3.6zm15.6 9.2zm1.1-1h12.2c.6 0 1.1.5 1.1 1.1v2.6H20.6v-2.6c0-.6.5-1.1 1.1-1.1zM1.1 10.2c0-.8.6-1.4 1.4-1.4.7 0 1.3.6 1.4 1.3v6.6h32.2v-6.5c0-.8.6-1.4 1.4-1.4s1.4.6 1.4 1.4V18c0 .4-.3.7-.7.7H1.9c-.4 0-.7-.3-.7-.7v-7.8z" fill="currentColor"/>
  </symbol>

  <symbol id="bedding" viewBox="0 0 40 28.1">
    <path d="M34.8 9.7V5.1c0-2.8-2.3-5.1-5.1-5.1H10.3C7.5 0 5.2 2.3 5.2 5.1v4.6c-3 .7-5.2 3.4-5.2 6.5v11.3c0 .3.3.6.6.6s.6-.3.6-.6v-2.6h37.5v2.6c0 .3.3.6.6.6s.6-.3.6-.6V16.3c.1-3.2-2.2-5.9-5.1-6.6zM6.4 5.1c0-2.1 1.7-3.9 3.9-3.9h19.4c2.1 0 3.9 1.7 3.9 3.9v4.4h-2V8.3c0-1.7-1.4-3-3-3H24c-1.7 0-3 1.4-3 3v1.2h-2.1V8.3c0-1.7-1.4-3-3-3h-4.6c-1.7 0-3 1.4-3 3v1.2h-2V5.1zm24 4.4h-8.2V8.3c0-1 .8-1.8 1.8-1.8h4.6c1 0 1.8.8 1.8 1.8v1.2zm-12.7 0H9.5V8.3c0-1 .8-1.8 1.8-1.8h4.6c1 0 1.8.8 1.8 1.8v1.2zm-11 1.2h26.5c2.8 0 5.2 2.2 5.5 4.9H1.2c.3-2.7 2.7-4.9 5.5-4.9zm32 13H1.2v-6.8h37.5v6.8z" fill="currentColor"/>
  </symbol>

  <symbol id="lighting" viewBox="0 0 36.5 30.1">
    <path d="M33.1 11.2h-7.3l-3.3 10v1.7h6.4v2.6c0 1.6-.6 3.3-5 3.3h-5V4.5H23c1.7 0 3.1-1.4 3.1-3.1V0H10.4v1.2c0 1.7 1.4 3.1 3.1 3.1h4.1v24.4h-5c-2.1 0-5-.3-5-3.3v-2.6H14v-1.4l-3.4-10.2H3.4L0 21.2v1.7h6.4v2.6c0 2.1 1.1 4.6 6.2 4.6h11.2c5.2 0 6.2-2.5 6.2-4.6v-2.6h6.4v-1.4l-3.3-10.3zm-.9 1.2l3 9.1v.1H23.7l3-9.2h5.5zM24.9 1.2c0 1.1-.9 2-2 2h-9.3c-1.1 0-1.9-.8-1.9-1.9l13.2-.1zM9.8 12.5l3 9.1H1.3l3-9.1h5.5z" fill="currentColor"/>
  </symbol>

  <symbol id="tables" viewBox="0 0 30 30.6">
    <path d="M28.9 6.2c-.4.6-5 1.8-13.8 1.8-8.9.1-13.4-1.1-13.9-1.8V4.3C4.5 5.9 13.8 6 15.1 6c1.3 0 10.5-.1 13.8-1.7v1.9zm-13.8-5c8.6 0 13.1 1.2 13.8 1.8-.6.6-5.2 1.8-13.8 1.8C6.5 4.8 1.9 3.6 1.3 3c.6-.6 5.2-1.8 13.8-1.8zM30 2.7C29.1.1 16.5 0 15.1 0 13.5 0 0 .1 0 3v3.3C0 8 4.5 8.7 8.6 9L2.1 27c-.1.3 0 .7.4.8.3.1.7 0 .8-.4L9.9 9.1c1.9.1 3.7.2 4.6.2V30c0 .3.3.6.6.6s.6-.3.6-.6V9.3c.9 0 2.7 0 4.6-.2l6.6 18.3c.1.3.5.5.8.4.3-.1.5-.5.4-.8L21.5 9c4.1-.3 8.5-1.1 8.5-2.7V2.7z" fill="currentColor"/>
  </symbol>

  <symbol id="chairs" viewBox="0 0 30.9 40.2">
    <path d="M30.9 10.2c0-.3-.2-.5-.4-.6-.1 0-3-1-4.2-4.1-.2-.5-.4-.9-.5-1.4-.9-2.4-3.3-4.1-6-4.1h-8.7C8.4 0 6 1.7 5.2 4.2c-.2.5-.4.9-.6 1.4C3.4 8.7.4 9.6.4 9.7c-.2.1-.4.3-.4.5 0 .1 0 .2.1.3 0 0 2.9 3.8 3.5 9.7.2 1.6 1.5 2.8 3 2.8H10L5 39.3v.4l.3.3h.2c.3 0 .5-.2.6-.4l1.1-3.7 8.1-6.1 8.1 6.1 1.1 3.7c.1.2.3.4.6.4h.2c.2 0 .3-.1.3-.3s.1-.3 0-.4l-5-16.3H24c1.6 0 2.9-1.2 3-2.8.6-6 3.5-9.7 3.5-9.8.4.1.4 0 .4-.2zM5.7 6c.2-.5.4-1 .5-1.5.7-2 2.7-3.4 4.8-3.4h8.7c2.2 0 4.1 1.4 4.8 3.4.3.5.5 1 .7 1.5.8 2.2 2.3 3.4 3.5 4.1-3.8 1.7-5.4 6.9-5.9 8.6H8.1C7.7 17 6 11.8 2.2 10.1 3.4 9.4 4.9 8.2 5.7 6zm2.2 28.2l2.4-8 4.1 3.1-6.5 4.9zm2.8-9.2l.6-1.9h8.4l.6 1.9-4.8 3.5-4.8-3.5zM23 34.2l-6.6-4.9 4.1-3.1 2.5 8zm3.1-14c-.1 1-.9 1.7-1.9 1.7H6.6c-1 0-1.8-.7-1.9-1.7-.3-4.2-1.8-7.3-2.7-8.9 3.8 1.9 5.1 8.1 5.1 8.1.1.3.3.5.6.5h15.6c.3 0 .5-.2.6-.5 0-.1 1.4-6.3 5.1-8.1-1 1.6-2.5 4.7-2.9 8.9z" fill="currentColor"/>
  </symbol>

  <symbol id="decor" viewBox="0 0 36.2 33.9">
    <path d="M35.7 17.8c.6 2.1 1 3.8-.1 4.9-.4.4-.9.6-1.5.6-.5 0-1-.1-1.6-.2-.4-.1-.9-.2-1.2-.2l-.1-1.4c.5 0 1 .1 1.6.2h.1c.8.2 1.6.3 1.8 0 .5-.6.2-1.9-.3-3.6-.5-1.7-1-3.9-1-6.4 0-2.6.6-4.7 1-6.4.4-1.7.8-3 .3-3.6-.4-.5-1.1-.3-2.9.1-2.2.5-5.3 1.2-10.4 1.2s-8.2-.7-10.3-1.2c-1.8-.4-2.5-.6-2.9-.1-.6.6-.1 2.2.4 3.9.4 1.5.9 3.1.9 4.8 0 .1 0 .6-.1 1.2 0 .7-.1 1.4-.1 1.6H7.9c0-.3.1-1.2.1-1.9 0-.5.1-.9.1-1 0-1.4-.5-3-.9-4.4-.6-2-1.2-4 0-5.2 1-1.1 2.3-.8 4.2-.3 2 .5 5 1.2 10 1.2 4.9 0 8-.7 10-1.2 1.9-.5 3.2-.8 4.2.3 1.1 1.1.6 2.8.1 4.9-.4 1.6-1 3.7-1 6.1 0 2.4.5 4.5 1 6.1zm-10.8 2.3s.3 3.6.3 4-.3 3.9-.3 4c0 .3-.3.6-.6.6 0 0-.4 0-1.2.1-2.3.2-7 .6-8 .6s-5.7-.4-8-.6c-.8-.1-1.2-.1-1.2-.1-.3 0-.6-.3-.6-.6v-.4c-.1-.9-.3-3.3-.3-3.6s.2-2.7.3-3.6v-.4c0-.3.3-.6.6-.6 0 0 .4 0 1.2-.1 2.3-.2 6.9-.6 8-.6 1 0 5.7.4 8 .6.8.1 1.2.1 1.2.1.3 0 .6.2.6.6zm-1 3.9c0-.3-.2-3.1-.2-3.2v-.1h-.5c-4.6-.4-7.4-.6-8.1-.6-.7 0-3.5.2-8.1.6h-.5v.1s-.2 2.9-.2 3.2c0 .3.3 3.3.3 3.3h.5c4.6.4 7.4.6 8.1.6s3.5-.2 8.1-.6h.5v-.1c0-1.1.1-2.9.1-3.2zm5.4 6c.5.9 1.4 2.3.3 3.3-1 1-2.5.3-3.8-.3-.5-.3-1.1-.5-1.5-.5-.4 0-1.4.1-2.5.2-2 .2-4.6.5-6.8.5s-4.9-.3-6.8-.5c-1.1-.1-2.1-.2-2.5-.2-.3 0-.9.3-1.5.5-.8.4-1.7.8-2.5.8-.5 0-.9-.2-1.3-.5-1.1-1.1-.2-2.4.3-3.4.2-.4.5-.8.5-1 0-.2-.1-1-.1-2 0-1.1-.1-2.5-.1-2.9s.1-1.8.2-3c.1-1 .1-1.8.1-2 0-.2-.2-.6-.5-1-.5-.9-1.4-2.3-.3-3.3.4-.4.8-.5 1.3-.5.8 0 1.7.4 2.5.8.5.3 1.1.5 1.4.5.4 0 1.4-.1 2.5-.2 2-.2 4.6-.5 6.8-.5s4.9.3 6.8.5c1.1.1 2.1.2 2.5.2.3 0 .9-.3 1.5-.5 1.2-.6 2.7-1.3 3.8-.3 1.1 1.1.2 2.4-.3 3.4-.2.4-.5.8-.5 1 0 .4.1 1.2.2 2.1v.1c.1 1 .2 2.1.2 2.8s-.1 1.8-.2 2.8v.1c-.1.9-.2 1.7-.2 2.1 0 .1.3.5.5.9zm-1.9-11c0-.6.3-1.1.7-1.7.5-.9.8-1.4.5-1.6-.3-.3-1.3.1-2.1.5-.7.3-1.4.7-2 .7-.2 0-1-.1-2.1-.2-2.3-.2-5.8-.5-7.2-.5s-4.9.3-7.2.5c-1.1.1-1.9.2-2.1.2-.6 0-1.3-.3-2.1-.7-.6-.3-1.4-.6-1.8-.6-.1 0-.3 0-.3.1-.3.3 0 .7.5 1.6.4.6.7 1.1.7 1.7 0 .2-.1 1.2-.2 2.2-.1 1.2-.2 2.4-.2 2.8s.1 1.6.2 2.8c.1 1 .2 2 .2 2.2 0 .6-.3 1.1-.7 1.7-.6.9-.8 1.4-.5 1.6.3.3 1.4-.2 2.2-.5.7-.3 1.4-.7 2-.7.5 0 1.5.1 2.7.2 1.9.2 4.6.5 6.7.5 2.1 0 4.8-.3 6.7-.5 1.2-.1 2.2-.2 2.7-.2.6 0 1.3.3 2.1.7.6.3 1.4.6 1.8.6.1 0 .3 0 .3-.1.3-.3 0-.7-.5-1.6-.4-.6-.7-1.1-.7-1.7 0-.5.1-1.4.2-2.3.1-1 .2-2 .2-2.7s-.1-1.7-.2-2.7c-.4-.9-.5-1.7-.5-2.3z" fill="currentColor"/>
  </symbol>

  <symbol id="signin" viewBox="0 0 33.7 33.7">
    <path d="M28.8 4.9C25.6 1.8 21.3 0 16.8 0S8.1 1.8 4.9 4.9C1.8 8.1 0 12.3 0 16.8s1.8 8.7 4.9 11.9c3.2 3.2 7.4 4.9 11.9 4.9s8.7-1.8 11.9-4.9c3.2-3.2 4.9-7.4 4.9-11.9.1-4.5-1.7-8.7-4.8-11.9zM16.7 20.6c-2.6-.1-4.7-2.2-4.7-4.9s2.2-4.9 4.9-4.9 4.9 2.2 4.9 4.9c0 2.6-2.1 4.8-4.7 4.9h-.4zm-.1 1.4h.6c4.5.1 8.2 3.5 8.2 7.8-2.4 1.6-5.4 2.6-8.5 2.6-3.1 0-6-.9-8.5-2.6 0-4.2 3.6-7.7 8.2-7.8zm10 6.8c-.4-3.6-3.1-6.5-6.6-7.7 1.8-1.1 3.1-3.1 3.1-5.4 0-3.5-2.8-6.3-6.3-6.3s-6.3 2.8-6.3 6.3c0 2.3 1.2 4.3 3.1 5.4-3.5 1.1-6.2 4.1-6.6 7.7-3.5-2.8-5.7-7.1-5.7-12 0-8.5 6.9-15.5 15.5-15.5 8.5 0 15.5 6.9 15.5 15.5 0 4.9-2.2 9.2-5.7 12z" fill="currentColor"/>
  </symbol>

  <symbol id="signout" viewBox="0 0 29.1 29.4">
    <path d="M28.9 15.2l-7.3 7.3c-.3.3-.8.3-1.1 0-.1-.1-.2-.3-.2-.5s.1-.4.2-.5l6-6H11.3c-.4 0-.8-.3-.8-.8 0-.4.3-.8.8-.8h15.3l-6-6c-.3-.3-.3-.8 0-1.1.3-.3.8-.3 1.1 0l7.2 7.2.1.1c.1.1.2.3.2.5s-.2.5-.3.6zM15.1 0H3.7C1.7 0 0 1.7 0 3.7v22c0 2 1.7 3.7 3.7 3.7h11.4c.4 0 .8-.3.8-.8 0-.4-.3-.8-.8-.8H3.7c-1.2 0-2.2-1-2.2-2.2v-22c0-1.2 1-2.2 2.2-2.2h11.4c.4 0 .8-.3.8-.8-.1-.3-.4-.6-.8-.6z" fill="currentColor"/>
  </symbol>

  <symbol id="verified" viewBox="0 0 16 16">
    <path d="M7.5 15.1c.3-.1.7-.1.9 0l1.4.8c.3.1.6.1.7-.2l.8-1.4c.1-.3.5-.5.8-.5l1.6-.1c.3 0 .5-.3.5-.6l-.1-1.6c0-.3.1-.7.4-.8l1.3-.9c.2-.2.3-.5.1-.7l-1-1.3c-.2-.2-.2-.6-.1-.9l.6-1.5c.1-.3 0-.6-.3-.7L13.5 4c-.3-.1-.6-.4-.6-.7l-.3-1.6c-.1-.3-.3-.5-.6-.4l-1.6.4c-.3.1-.7-.1-.9-.3L8.4.2c-.2-.2-.6-.2-.8 0L6.5 1.4c-.2.2-.6.3-.9.3L4 1.3c-.3-.1-.5.1-.6.4l-.3 1.6c-.1.3-.3.6-.6.7L1 4.5c-.3.1-.5.4-.4.7l.6 1.5c.1.3 0 .7-.1.9l-1 1.3c-.2.2-.1.6.1.7l1.3.9c.2.2.4.6.4.8l-.1 1.6c0 .3.2.5.5.6l1.6.1c.3 0 .6.2.8.5l.8 1.4c.1.3.5.4.7.2l1.3-.6z" fill="currentColor"/><path d="M11.5 5.5c-.2-.2-.6-.2-.8.1l-3.6 4-1.8-2c-.2-.3-.6-.3-.8-.1-.3.3-.3.6-.1.9L6.6 11c.1.1.3.2.4.2.1 0 .3 0 .4-.1l.1-.1 4-4.6c.3-.3.3-.7 0-.9z" style="fill:#fff"/>
  </symbol>

  <symbol id="information" viewBox="0 0 16 16">
    <path d="M7.4 12h1.3V7.2H7.4V12zM8 5.7c.2 0 .4-.1.5-.2.1-.1.2-.3.2-.5s-.1-.4-.2-.5c-.1-.1-.3-.1-.5-.1s-.4.1-.5.2c-.1.1-.2.2-.2.4s.1.4.2.5c.1.2.3.2.5.2zM8 16c-1.1 0-2.1-.2-3.1-.6-1-.4-1.8-1-2.5-1.7S1.1 12.1.7 11.2C.2 10.1 0 9.1 0 8s.2-2.1.6-3.1c.4-1 1-1.8 1.7-2.5S3.9 1.1 4.8.7C5.9.2 6.9 0 8 0s2.1.2 3.1.6c1 .4 1.8 1 2.5 1.7s1.3 1.6 1.7 2.5c.4 1 .6 2 .6 3.1s-.2 2.1-.6 3.1c-.4 1-1 1.8-1.7 2.5s-1.6 1.3-2.5 1.7c-1 .6-2 .8-3.1.8zm0-1.3c1.9 0 3.5-.7 4.8-2s2-2.9 2-4.8-.7-3.5-2-4.8-2.9-2-4.8-2-3.5.7-4.8 2-2 2.9-2 4.8.7 3.5 2 4.8 2.9 2 4.8 2z" fill="currentColor"/>
  </symbol>

  <symbol id="promo" viewBox="0 0 24 24">
    <path d="M14.4 23.5c-.4.4-.8.5-1.4.5-.5 0-1-.2-1.4-.5L.6 12.3c-.2-.2-.3-.4-.4-.6-.1-.2-.2-.5-.2-.8v-9C0 1.4.2.9.6.6.9.2 1.4 0 1.9 0h9c.3 0 .5.1.7.2.2.1.4.2.6.4l11.1 11.1c.4.4.6.8.6 1.4 0 .5-.2 1-.5 1.3.1 0-9 9.1-9 9.1zm-1.3-1.4 9-9L10.9 1.9h-9v9l11.2 11.2zm-8-15.5c.4 0 .8-.2 1.1-.5.3-.3.5-.7.5-1.1 0-.4-.2-.8-.5-1.1-.3-.3-.7-.4-1.1-.4-.4 0-.8.2-1.1.5-.4.2-.5.6-.5 1.1 0 .4.2.8.5 1.1.2.3.6.4 1.1.4z" fill="currentColor"/>
  </symbol>

</svg>
