<svg xmlns="http://www.w3.org/2000/svg" viewBox="0 0 36.5 30.1"><metadata><?xpacket begin="﻿" id="W5M0MpCehiHzreSzNTczkc9d"?>
<x:xmpmeta xmlns:x="adobe:ns:meta/" x:xmptk="Adobe XMP Core 5.6-c137 79.159768, 2016/08/11-13:24:42        ">
   <rdf:RDF xmlns:rdf="http://www.w3.org/1999/02/22-rdf-syntax-ns#">
      <rdf:Description rdf:about=""/>
   </rdf:RDF>
</x:xmpmeta>
                                                                                                    
                                                                                                    
                                                                                                    
                                                                                                    
                                                                                                    
                                                                                                    
                                                                                                    
                                                                                                    
                                                                                                    
                                                                                                    
                                                                                                    
                                                                                                    
                                                                                                    
                                                                                                    
                                                                                                    
                                                                                                    
                                                                                                    
                                                                                                    
                                                                                                    
                                                                                                    
                           
<?xpacket end="w"?></metadata>
<path d="M33.1 11.2h-7.3l-3.3 10v1.7h6.4v2.6c0 1.6-.6 3.3-5 3.3h-5V4.5H23c1.7 0 3.1-1.4 3.1-3.1V0H10.4v1.2c0 1.7 1.4 3.1 3.1 3.1h4.1v24.4h-5c-2.1 0-5-.3-5-3.3v-2.6H14v-1.4l-3.4-10.2H3.4L0 21.2v1.7h6.4v2.6c0 2.1 1.1 4.6 6.2 4.6h11.2c5.2 0 6.2-2.5 6.2-4.6v-2.6h6.4v-1.4l-3.3-10.3zm-.9 1.2l3 9.1v.1H23.7l3-9.2h5.5zM24.9 1.2c0 1.1-.9 2-2 2h-9.3c-1.1 0-1.9-.8-1.9-1.9l13.2-.1zM9.8 12.5l3 9.1H1.3l3-9.1h5.5z"/></svg>