<svg xmlns="http://www.w3.org/2000/svg" viewBox="0 0 150 23.2"><metadata><?xpacket begin="﻿" id="W5M0MpCehiHzreSzNTczkc9d"?>
<x:xmpmeta xmlns:x="adobe:ns:meta/" x:xmptk="Adobe XMP Core 5.6-c137 79.159768, 2016/08/11-13:24:42        ">
   <rdf:RDF xmlns:rdf="http://www.w3.org/1999/02/22-rdf-syntax-ns#">
      <rdf:Description rdf:about=""/>
   </rdf:RDF>
</x:xmpmeta>
                                                                                                    
                                                                                                    
                                                                                                    
                                                                                                    
                                                                                                    
                                                                                                    
                                                                                                    
                                                                                                    
                                                                                                    
                                                                                                    
                                                                                                    
                                                                                                    
                                                                                                    
                                                                                                    
                                                                                                    
                                                                                                    
                                                                                                    
                                                                                                    
                                                                                                    
                                                                                                    
                           
<?xpacket end="w"?></metadata>
<style type="text/css">
	.st0{fill:#95DBFF;}
</style><path d="M142.2 8.2h-4V3.8h-4.5v4.4h-2.9v3.6h2.9v7c0 0.8 0.1 1.5 0.4 2.1 0.3 0.6 0.7 1 1.1 1.4 0.5 0.4 1 0.6 1.7 0.8 0.6 0.2 1.4 0.2 2.1 0.2 0.5 0 1.1 0 1.6-0.1 0.5-0.1 1.1-0.2 1.6-0.4V19c-0.2 0.2-0.5 0.3-0.9 0.3 -0.4 0.1-0.7 0.1-1 0.1 -0.5 0-0.9-0.1-1.2-0.2 -0.3-0.1-0.5-0.3-0.7-0.6 -0.1-0.2-0.2-0.5-0.3-0.9 0-0.3-0.1-0.7-0.1-1.1v-4.9h4V8.2zM129.4 9.7c-0.7-0.7-1.5-1.2-2.5-1.5 -1-0.3-2-0.4-2.9-0.4 -0.8 0-1.5 0.1-2.3 0.3 -0.7 0.2-1.4 0.5-2 0.9 -0.6 0.4-1 0.9-1.4 1.5 -0.4 0.6-0.5 1.4-0.5 2.2 0 0.9 0.2 1.7 0.6 2.2 0.4 0.6 0.8 1 1.4 1.3 0.6 0.3 1.2 0.5 1.8 0.7 0.7 0.2 1.3 0.3 1.8 0.4 0.6 0.1 1 0.3 1.4 0.5 0.4 0.2 0.6 0.5 0.6 0.9 0 0.4-0.2 0.7-0.6 0.8 -0.4 0.2-0.9 0.2-1.4 0.2 -0.7 0-1.3-0.1-1.8-0.4s-1-0.7-1.4-1.2l-2.8 3.1c0.7 0.7 1.6 1.3 2.7 1.6 1 0.3 2.1 0.4 3.1 0.4 0.8 0 1.6-0.1 2.4-0.2 0.8-0.2 1.5-0.4 2.2-0.8 0.6-0.4 1.2-0.9 1.6-1.5 0.4-0.6 0.6-1.4 0.6-2.3 0-0.9-0.2-1.7-0.6-2.2 -0.4-0.6-0.8-1-1.4-1.3 -0.6-0.3-1.2-0.6-1.8-0.7 -0.7-0.2-1.3-0.3-1.8-0.4 -0.6-0.1-1-0.3-1.4-0.5 -0.4-0.2-0.6-0.4-0.6-0.8 0-0.4 0.2-0.8 0.5-0.9 0.4-0.2 0.7-0.3 1.1-0.3 1.1 0 2 0.4 2.6 1.2L129.4 9.7zM111 5.4c0.5 0.5 1.1 0.8 1.9 0.8 0.7 0 1.3-0.3 1.9-0.8 0.5-0.5 0.8-1.1 0.8-1.9 0-0.7-0.3-1.3-0.8-1.9 -0.5-0.5-1.1-0.8-1.9-0.8 -0.7 0-1.3 0.3-1.9 0.8 -0.5 0.5-0.8 1.1-0.8 1.9C110.3 4.3 110.5 4.9 111 5.4M110.6 22.9h4.5V8.2h-4.5V22.9zM93.4 22.9h4.5v-7.3c0-0.5 0-0.9 0.1-1.4 0.1-0.4 0.2-0.8 0.4-1.2 0.2-0.4 0.5-0.6 0.8-0.8 0.4-0.2 0.8-0.3 1.4-0.3 0.6 0 1 0.1 1.3 0.4 0.3 0.2 0.5 0.6 0.7 0.9 0.2 0.4 0.2 0.8 0.3 1.3 0 0.5 0 0.9 0 1.3v7.2h4.5v-8.1c0-1-0.1-1.9-0.2-2.8 -0.1-0.8-0.4-1.6-0.8-2.2 -0.4-0.6-0.9-1.1-1.6-1.5 -0.7-0.4-1.6-0.5-2.8-0.5 -0.5 0-1 0.1-1.5 0.2 -0.5 0.1-0.9 0.3-1.2 0.5C99 8.8 98.6 9 98.4 9.3c-0.3 0.3-0.5 0.6-0.6 0.8h-0.1v-2h-4.4V22.9zM80.6 22.9h4.5v-6.1c0-0.7 0-1.4 0.1-2 0.1-0.6 0.3-1.1 0.5-1.6 0.3-0.4 0.7-0.8 1.2-1 0.5-0.2 1.2-0.4 2.1-0.4 0.3 0 0.7 0 1 0.1 0.3 0.1 0.6 0.1 1 0.2V8c-0.2-0.1-0.5-0.1-0.7-0.1 -0.3 0-0.5 0-0.8 0 -1 0-1.8 0.2-2.5 0.7 -0.7 0.5-1.2 1.1-1.7 2h-0.1V8.2h-4.5V22.9zM67.5 13.9c0-0.4 0.1-0.7 0.3-1 0.2-0.3 0.4-0.6 0.6-0.9 0.3-0.3 0.6-0.5 1-0.6 0.4-0.2 0.8-0.2 1.3-0.2 0.8 0 1.5 0.3 2 0.8 0.5 0.5 0.8 1.2 0.8 2H67.5zM74.2 18c-0.4 0.5-0.8 1-1.3 1.3 -0.5 0.3-1.1 0.5-1.9 0.5 -0.9 0-1.6-0.3-2.2-0.8 -0.6-0.5-1-1.2-1.2-2.1H78v-1.4c0-1.2-0.2-2.2-0.5-3.2 -0.3-0.9-0.8-1.8-1.4-2.4 -0.6-0.7-1.3-1.2-2.2-1.6 -0.9-0.4-1.8-0.5-2.9-0.5 -1.1 0-2.2 0.2-3.2 0.5 -1 0.4-1.9 0.9-2.6 1.6 -0.7 0.7-1.3 1.5-1.7 2.4 -0.4 0.9-0.6 2-0.6 3.2 0 1.2 0.2 2.2 0.6 3.2 0.4 0.9 1 1.8 1.7 2.4 0.7 0.7 1.6 1.2 2.6 1.6 1 0.4 2.1 0.5 3.2 0.5 1.2 0 2.3-0.3 3.5-0.8 1.1-0.5 2-1.2 2.8-2.1L74.2 18zM54.8 18.2c-0.6 0.7-1.5 1-2.7 1 -1.2 0-2-0.3-2.7-1 -0.6-0.7-1-1.6-1-2.7 0-1.1 0.3-2 1-2.7 0.6-0.7 1.5-1 2.7-1 1.2 0 2 0.3 2.7 1 0.6 0.7 1 1.6 1 2.7C55.8 16.6 55.4 17.5 54.8 18.2M59.9 0h-4.5v9.7h-0.1c-0.5-0.7-1.2-1.2-2-1.5 -0.8-0.3-1.7-0.4-2.6-0.4 -1 0-2 0.2-2.8 0.7 -0.8 0.4-1.5 1-2.1 1.7 -0.6 0.7-1 1.6-1.3 2.5 -0.3 0.9-0.5 1.9-0.5 3 0 1.1 0.2 2.1 0.5 3.1 0.3 0.9 0.8 1.7 1.5 2.4 0.6 0.7 1.4 1.2 2.3 1.6 0.9 0.4 1.9 0.6 3 0.6 0.5 0 1-0.1 1.5-0.2 0.5-0.1 0.9-0.3 1.3-0.5 0.4-0.2 0.7-0.5 1-0.7 0.3-0.3 0.5-0.5 0.7-0.8h0.1v1.9h4.2V0zM31.1 12.8c0.6-0.7 1.5-1 2.7-1 1.2 0 2 0.3 2.7 1 0.6 0.7 1 1.6 1 2.7 0 1.1-0.3 2-1 2.7 -0.6 0.7-1.5 1-2.7 1 -1.2 0-2-0.3-2.7-1 -0.6-0.7-1-1.6-1-2.7C30.2 14.4 30.5 13.5 31.1 12.8M26.3 18.7c0.4 0.9 1 1.8 1.7 2.4 0.7 0.7 1.6 1.2 2.6 1.6 1 0.4 2.1 0.5 3.2 0.5 1.1 0 2.2-0.2 3.2-0.5 1-0.4 1.9-0.9 2.6-1.6 0.7-0.7 1.3-1.5 1.7-2.4 0.4-0.9 0.6-2 0.6-3.2 0-1.2-0.2-2.2-0.6-3.2 -0.4-0.9-1-1.8-1.7-2.4C38.9 9.2 38 8.7 37 8.4c-1-0.4-2.1-0.5-3.2-0.5 -1.1 0-2.2 0.2-3.2 0.5 -1 0.4-1.9 0.9-2.6 1.6 -0.7 0.7-1.3 1.5-1.7 2.4 -0.4 0.9-0.6 2-0.6 3.2C25.6 16.7 25.9 17.8 26.3 18.7M0 22.9h4.5v-7.3c0-0.5 0-0.9 0.1-1.4C4.7 13.7 4.8 13.3 5 13c0.2-0.4 0.5-0.6 0.8-0.8 0.4-0.2 0.8-0.3 1.4-0.3 0.5 0 0.9 0.1 1.2 0.4 0.3 0.2 0.5 0.5 0.6 0.9 0.1 0.3 0.2 0.7 0.2 1.1 0 0.4 0 0.7 0 1v7.8h4.5v-7.8c0-0.4 0-0.9 0.1-1.3 0.1-0.4 0.2-0.8 0.5-1.1 0.2-0.3 0.5-0.5 0.8-0.7 0.4-0.2 0.8-0.3 1.3-0.3 0.7 0 1.3 0.2 1.6 0.7 0.3 0.5 0.4 1.1 0.4 1.8v8.6h4.5v-8.7c0-0.9-0.1-1.7-0.3-2.5 -0.2-0.8-0.5-1.5-0.8-2 -0.4-0.6-0.9-1-1.6-1.4 -0.7-0.3-1.5-0.5-2.5-0.5 -1.1 0-2 0.2-2.8 0.6 -0.7 0.4-1.4 1.1-1.9 2 -0.4-0.9-1-1.6-1.8-2C10.7 8 9.7 7.8 8.7 7.8c-0.5 0-1 0.1-1.5 0.2C6.7 8.2 6.3 8.3 6 8.6 5.6 8.8 5.3 9 5 9.3c-0.3 0.3-0.5 0.6-0.6 0.8H4.4v-2H0V22.9z" fill="currentColor"/><circle cx="147.2" cy="20.3" r="2.8" fill="#95dbff"/></svg>