<svg xmlns="http://www.w3.org/2000/svg" viewBox="0 0 33.7 33.7"><path d="M28.8 4.9C25.6 1.8 21.3 0 16.8 0S8.1 1.8 4.9 4.9C1.8 8.1 0 12.3 0 16.8s1.8 8.7 4.9 11.9c3.2 3.2 7.4 4.9 11.9 4.9s8.7-1.8 11.9-4.9c3.2-3.2 4.9-7.4 4.9-11.9.1-4.5-1.7-8.7-4.8-11.9zM16.7 20.6c-2.6-.1-4.7-2.2-4.7-4.9s2.2-4.9 4.9-4.9 4.9 2.2 4.9 4.9c0 2.6-2.1 4.8-4.7 4.9h-.4zm-.1 1.4h.6c4.5.1 8.2 3.5 8.2 7.8-2.4 1.6-5.4 2.6-8.5 2.6-3.1 0-6-.9-8.5-2.6 0-4.2 3.6-7.7 8.2-7.8zm10 6.8c-.4-3.6-3.1-6.5-6.6-7.7 1.8-1.1 3.1-3.1 3.1-5.4 0-3.5-2.8-6.3-6.3-6.3s-6.3 2.8-6.3 6.3c0 2.3 1.2 4.3 3.1 5.4-3.5 1.1-6.2 4.1-6.6 7.7-3.5-2.8-5.7-7.1-5.7-12 0-8.5 6.9-15.5 15.5-15.5 8.5 0 15.5 6.9 15.5 15.5 0 4.9-2.2 9.2-5.7 12z"/></svg>