<svg xmlns="http://www.w3.org/2000/svg" viewBox="0 0 29.1 29.4"><metadata><?xpacket begin="﻿" id="W5M0MpCehiHzreSzNTczkc9d"?>
<x:xmpmeta xmlns:x="adobe:ns:meta/" x:xmptk="Adobe XMP Core 5.6-c137 79.159768, 2016/08/11-13:24:42        ">
   <rdf:RDF xmlns:rdf="http://www.w3.org/1999/02/22-rdf-syntax-ns#">
      <rdf:Description rdf:about=""/>
   </rdf:RDF>
</x:xmpmeta>
                                                                                                    
                                                                                                    
                                                                                                    
                                                                                                    
                                                                                                    
                                                                                                    
                                                                                                    
                                                                                                    
                                                                                                    
                                                                                                    
                                                                                                    
                                                                                                    
                                                                                                    
                                                                                                    
                                                                                                    
                                                                                                    
                                                                                                    
                                                                                                    
                                                                                                    
                                                                                                    
                           
<?xpacket end="w"?></metadata>
<path d="M28.9 15.2l-7.3 7.3c-.3.3-.8.3-1.1 0-.1-.1-.2-.3-.2-.5s.1-.4.2-.5l6-6H11.3c-.4 0-.8-.3-.8-.8 0-.4.3-.8.8-.8h15.3l-6-6c-.3-.3-.3-.8 0-1.1.3-.3.8-.3 1.1 0l7.2 7.2.1.1c.1.1.2.3.2.5s-.2.5-.3.6zM15.1 0H3.7C1.7 0 0 1.7 0 3.7v22c0 2 1.7 3.7 3.7 3.7h11.4c.4 0 .8-.3.8-.8 0-.4-.3-.8-.8-.8H3.7c-1.2 0-2.2-1-2.2-2.2v-22c0-1.2 1-2.2 2.2-2.2h11.4c.4 0 .8-.3.8-.8-.1-.3-.4-.6-.8-.6z"/></svg>