<svg xmlns="http://www.w3.org/2000/svg" viewBox="0 0 40 23.1"><path d="M37.5 7.7c-.5 0-1 .2-1.4.4V3.6c0-2-1.6-3.6-3.6-3.6h-25c-2 0-3.6 1.6-3.6 3.6v4.5c-.4-.3-.9-.4-1.4-.4C1.1 7.7 0 8.8 0 10.2V18c0 1 .8 1.9 1.9 1.9h2v2.6c0 .3.3.6.6.6s.6-.3.6-.6v-2.6h29.8v2.6c0 .3.3.6.6.6s.6-.3.6-.6v-2.6h2c1 0 1.9-.8 1.9-1.9v-7.8c0-1.4-1.1-2.5-2.5-2.5zM5.1 12.9c0-.6.5-1.1 1.1-1.1h12.2c.6 0 1 .5 1 1v2.7H5.1v-2.6zM5 3.6c0-1.4 1.1-2.5 2.5-2.5h24.9c1.4 0 2.5 1.1 2.5 2.5v7.3c-.3-.2-.7-.3-1.1-.3H21.7c-.6 0-1.2.3-1.7.7-.4-.5-1-.7-1.7-.7H6.2c-.4 0-.8.1-1.1.3L5 3.6zm15.6 9.2zm1.1-1h12.2c.6 0 1.1.5 1.1 1.1v2.6H20.6v-2.6c0-.6.5-1.1 1.1-1.1zM1.1 10.2c0-.8.6-1.4 1.4-1.4.7 0 1.3.6 1.4 1.3v6.6h32.2v-6.5c0-.8.6-1.4 1.4-1.4s1.4.6 1.4 1.4V18c0 .4-.3.7-.7.7H1.9c-.4 0-.7-.3-.7-.7v-7.8z"/></svg>