<svg xmlns="http://www.w3.org/2000/svg" viewBox="0 0 20 19"><metadata><?xpacket begin="﻿" id="W5M0MpCehiHzreSzNTczkc9d"?>
<x:xmpmeta xmlns:x="adobe:ns:meta/" x:xmptk="Adobe XMP Core 5.6-c137 79.159768, 2016/08/11-13:24:42        ">
   <rdf:RDF xmlns:rdf="http://www.w3.org/1999/02/22-rdf-syntax-ns#">
      <rdf:Description rdf:about=""/>
   </rdf:RDF>
</x:xmpmeta>
                                                                                                    
                                                                                                    
                                                                                                    
                                                                                                    
                                                                                                    
                                                                                                    
                                                                                                    
                                                                                                    
                                                                                                    
                                                                                                    
                                                                                                    
                                                                                                    
                                                                                                    
                                                                                                    
                                                                                                    
                                                                                                    
                                                                                                    
                                                                                                    
                                                                                                    
                                                                                                    
                           
<?xpacket end="w"?></metadata>
<path d="M20 7.3c0-.1-.1-.2-.2-.2l-6.7-.8L10.2.2c-.1-.2-.3-.2-.4-.1L6.9 6.2l-6.7.9c-.1 0-.2.1-.2.2s0 .2.1.3L5 12.1l-1.3 6.6c0 .1 0 .2.1.2.1.1.2.1.3 0l5.9-3.3 5.9 3.3h.2c.1-.1.1-.2.1-.2L15 12.1l4.9-4.6c.1-.1.1-.2.1-.2z"/></svg>