<svg xmlns="http://www.w3.org/2000/svg" viewBox="0 0 30 30.6"><path d="M28.9 6.2c-.4.6-5 1.8-13.8 1.8-8.9.1-13.4-1.1-13.9-1.8V4.3C4.5 5.9 13.8 6 15.1 6c1.3 0 10.5-.1 13.8-1.7v1.9zm-13.8-5c8.6 0 13.1 1.2 13.8 1.8-.6.6-5.2 1.8-13.8 1.8C6.5 4.8 1.9 3.6 1.3 3c.6-.6 5.2-1.8 13.8-1.8zM30 2.7C29.1.1 16.5 0 15.1 0 13.5 0 0 .1 0 3v3.3C0 8 4.5 8.7 8.6 9L2.1 27c-.1.3 0 .7.4.8.3.1.7 0 .8-.4L9.9 9.1c1.9.1 3.7.2 4.6.2V30c0 .3.3.6.6.6s.6-.3.6-.6V9.3c.9 0 2.7 0 4.6-.2l6.6 18.3c.1.3.5.5.8.4.3-.1.5-.5.4-.8L21.5 9c4.1-.3 8.5-1.1 8.5-2.7V2.7z"/></svg>