<svg xmlns="http://www.w3.org/2000/svg" viewBox="0 0 33.3 40"><metadata><?xpacket begin="﻿" id="W5M0MpCehiHzreSzNTczkc9d"?>
<x:xmpmeta xmlns:x="adobe:ns:meta/" x:xmptk="Adobe XMP Core 5.6-c137 79.159768, 2016/08/11-13:24:42        ">
   <rdf:RDF xmlns:rdf="http://www.w3.org/1999/02/22-rdf-syntax-ns#">
      <rdf:Description rdf:about=""/>
   </rdf:RDF>
</x:xmpmeta>
                                                                                                    
                                                                                                    
                                                                                                    
                                                                                                    
                                                                                                    
                                                                                                    
                                                                                                    
                                                                                                    
                                                                                                    
                                                                                                    
                                                                                                    
                                                                                                    
                                                                                                    
                                                                                                    
                                                                                                    
                                                                                                    
                                                                                                    
                                                                                                    
                                                                                                    
                                                                                                    
                           
<?xpacket end="w"?></metadata>
<path d="M32.4 5.1h-9V3.4C23.4 1.5 21.9 0 20 0h-6.7c-1.9 0-3.4 1.5-3.4 3.4v1.7h-9c-.5 0-.9.4-.9.9s.4.9.9.9h.9l2.6 28.8c.3 2.4 2.3 4.3 4.7 4.3h15c2.4 0 4.5-1.9 4.7-4.3l2.6-28.8h.9c.5 0 .9-.4.9-.9.1-.5-.3-.9-.8-.9zM11.7 3.4c0-.8.7-1.5 1.5-1.5h6.7c.8 0 1.5.7 1.5 1.5v1.7h-9.7V3.4zM27 35.5c-.1 1.5-1.4 2.6-2.8 2.6h-15c-1.5 0-2.7-1.1-2.8-2.6L3.7 6.9h25.9L27 35.5zm-11.3-1.9V11.5c0-.5.4-.9.9-.9s.9.4.9.9v22.1c0 .5-.4.9-.9.9s-.9-.4-.9-.9zm5.4.6c-.2-.2-.3-.4-.2-.7l.8-22.1c0-.2.1-.5.3-.7.2-.2.4-.3.7-.2.5 0 .9.5.9 1l-.8 22.1c0 .5-.4.9-.9.9-.4 0-.6-.1-.8-.3zm-10.5-.6l-.8-22.1c0-.5.4-.9.9-1 .2 0 .5.1.7.2.2.2.3.4.3.7l.8 22.1c0 .2-.1.5-.2.7-.2.2-.4.3-.6.3-.7 0-1.1-.4-1.1-.9z"/></svg>