<svg xmlns="http://www.w3.org/2000/svg" viewBox="0 0 35 35"><metadata><?xpacket begin="﻿" id="W5M0MpCehiHzreSzNTczkc9d"?>
<x:xmpmeta xmlns:x="adobe:ns:meta/" x:xmptk="Adobe XMP Core 5.6-c137 79.159768, 2016/08/11-13:24:42        ">
   <rdf:RDF xmlns:rdf="http://www.w3.org/1999/02/22-rdf-syntax-ns#">
      <rdf:Description rdf:about=""/>
   </rdf:RDF>
</x:xmpmeta>
                                                                                                    
                                                                                                    
                                                                                                    
                                                                                                    
                                                                                                    
                                                                                                    
                                                                                                    
                                                                                                    
                                                                                                    
                                                                                                    
                                                                                                    
                                                                                                    
                                                                                                    
                                                                                                    
                                                                                                    
                                                                                                    
                                                                                                    
                                                                                                    
                                                                                                    
                                                                                                    
                           
<?xpacket end="w"?></metadata>
<path d="M25.6 11.7c.9-.1 1.7-.3 2.5-.7-.6.9-1.3 1.6-2.2 2.2v.5c0 .9-.1 1.7-.3 2.6-1.1 4.9-5.3 9.6-12.1 9.6-2.5 0-4.8-.7-6.7-1.9.4 0 .7.1 1 .1 2 0 3.9-.7 5.4-1.8-1.9 0-3.5-1.3-4.1-3 .3.1.5.1.8.1.4 0 .8-.1 1.2-.2-1.5-.3-2.7-1.3-3.2-2.7-.2-.5-.3-1-.3-1.5.6.3 1.3.5 2 .5-1.2-.8-1.9-2.1-1.9-3.6 0-.8.2-1.5.6-2.2 2.1 2.6 5.4 4.3 9 4.5-.1-.3-.1-.6-.1-1 0-2.4 2-4.3 4.4-4.3 1.3 0 2.4.5 3.2 1.4 1-.2 1.9-.6 2.8-1-.4 1-1.1 1.9-2 2.4M35 31.4V3.6c0-2-1.6-3.6-3.6-3.6H3.6C1.6 0 0 1.6 0 3.6v27.9c0 2 1.6 3.6 3.6 3.6h27.9c1.9-.1 3.5-1.7 3.5-3.7" fill="#b9bdc7"/></svg>